<svg data-name="Layer 1" xmlns="http://www.w3.org/2000/svg" width="40" height="40" viewBox="0 0 40 40"><title>instagram</title><path d="M19.8 24h.2a4 4 0 0 0 4-4 4.46 4.46 0 0 0-.73-2.34A3.94 3.94 0 0 0 20.08 16a4 4 0 0 0-4 4 3.86 3.86 0 0 0 3.72 4zm8.99-12.23v-.48h-3.87v3.87l3.87-.08v-3.31z" fill="#3f00c9"/><path d="M20 0a20 20 0 1 0 20 20A20 20 0 0 0 20 0zm11.45 17.68h-.08V27A4.42 4.42 0 0 1 27 31.44H13.06A4.42 4.42 0 0 1 8.63 27V13A4.42 4.42 0 0 1 13 8.56h14a4.42 4.42 0 0 1 4.45 4.39v4.73z" fill="#3f00c9"/><path d="M26.21 20a6.21 6.21 0 0 1-12.42 0 5.78 5.78 0 0 1 .48-2.34h-3.38V27A2.17 2.17 0 0 0 13 29.18h14A2.17 2.17 0 0 0 29.19 27v-9.34h-3.38a7.49 7.49 0 0 1 .4 2.34z" fill="#3f00c9"/></svg>