<svg data-name="Layer 1" xmlns="http://www.w3.org/2000/svg" width="40" height="40" viewBox="0 0 40 40"><title>vk</title><path d="M20 0a20 20 0 1 0 20 20A20 20 0 0 0 20 0zm10.36 26.48a.76.76 0 0 1-.33.14h-3.2a2.52 2.52 0 0 1-2-.8c-.44-.44-.85-.9-1.28-1.35A3 3 0 0 0 23 24a.68.68 0 0 0-1.07.25 3.15 3.15 0 0 0-.34 1.44.86.86 0 0 1-1 1 8.45 8.45 0 0 1-4.59-1 10 10 0 0 1-3.09-2.78 37.14 37.14 0 0 1-4.06-7c-.29-.57-.1-.91.53-.91h3.14a.92.92 0 0 1 .87.63 18.54 18.54 0 0 0 2.13 3.8 3.29 3.29 0 0 0 .8.85.49.49 0 0 0 .83-.24 2.56 2.56 0 0 0 .18-.8 11.44 11.44 0 0 0 0-2.79 1.18 1.18 0 0 0-1-1.06c-.33-.03-.33-.14-.16-.3a1.17 1.17 0 0 1 1-.47h3.53a.84.84 0 0 1 .77.91v3.88a1.16 1.16 0 0 0 .51 1 .61.61 0 0 0 .72-.34 12 12 0 0 0 2-3c.25-.48.46-1 .66-1.47a.77.77 0 0 1 .82-.54H30c.59.1.75.34.57.89a8.32 8.32 0 0 1-1.39 2.32c-.58.78-1.2 1.52-1.78 2.3a1 1 0 0 0 .17 1.69 29.41 29.41 0 0 1 2.15 2.09 6.08 6.08 0 0 1 .77 1.07.76.76 0 0 1-.13 1.06z" fill="#2c1fff"/></svg>