<svg xmlns="http://www.w3.org/2000/svg" xmlns:xlink="http://www.w3.org/1999/xlink" width="95" height="96" viewBox="0 0 95 96"><defs><path id="2644a" d="M314 1188.074a4.748 4.748 0 1 1 9.497 0 4.748 4.748 0 0 1-9.497 0z"/><path id="2644b" d="M328.101 1202.462a4.748 4.748 0 1 1 9.496 0 4.748 4.748 0 0 1-9.496 0z"/><path id="2644c" d="M328.101 1188.074a4.748 4.748 0 1 1 9.496 0 4.748 4.748 0 0 1-9.496 0z"/><path id="2644d" d="M342.49 1202.462a4.748 4.748 0 1 1 9.496 0 4.748 4.748 0 0 1-9.496 0z"/><path id="2644e" d="M342.49 1216.563a4.748 4.748 0 1 1 9.496 0 4.748 4.748 0 0 1-9.496 0z"/><path id="2644f" d="M342.49 1188.074a4.748 4.748 0 1 1 9.496 0 4.748 4.748 0 0 1-9.496 0z"/><path id="2644g" d="M356.59 1202.462a4.748 4.748 0 1 1 9.497 0 4.748 4.748 0 0 1-9.497 0z"/><path id="2644h" d="M356.59 1216.563a4.748 4.748 0 1 1 9.497 0 4.748 4.748 0 0 1-9.497 0z"/><path id="2644i" d="M356.59 1188.074a4.748 4.748 0 1 1 9.497 0 4.748 4.748 0 0 1-9.497 0z"/><path id="2644j" d="M370.691 1202.462a4.748 4.748 0 1 1 9.496 0 4.748 4.748 0 0 1-9.496 0z"/><path id="2644k" d="M370.691 1216.563a4.748 4.748 0 1 1 9.496 0 4.748 4.748 0 0 1-9.496 0z"/><path id="2644l" d="M356.59 1230.664a4.748 4.748 0 1 1 9.497 0 4.748 4.748 0 0 1-9.497 0z"/><path id="2644m" d="M370.691 1230.664a4.748 4.748 0 1 1 9.496 0 4.748 4.748 0 0 1-9.496 0z"/><path id="2644n" d="M342.49 1245.052a4.748 4.748 0 1 1 9.496 0 4.748 4.748 0 0 1-9.496 0z"/><path id="2644o" d="M356.59 1245.052a4.748 4.748 0 1 1 9.497 0 4.748 4.748 0 0 1-9.497 0z"/><path id="2644p" d="M370.69 1245.052a4.748 4.748 0 1 1 9.498 0 4.748 4.748 0 0 1-9.497 0z"/><path id="2644q" d="M328.101 1259.17a4.748 4.748 0 1 1 9.496 0 4.748 4.748 0 0 1-9.496 0z"/><path id="2644r" d="M342.49 1259.17a4.748 4.748 0 1 1 9.496 0 4.748 4.748 0 0 1-9.496 0z"/><path id="2644s" d="M356.59 1259.17a4.748 4.748 0 1 1 9.497 0 4.748 4.748 0 0 1-9.497 0z"/><path id="2644t" d="M370.691 1259.17a4.748 4.748 0 1 1 9.496 0 4.748 4.748 0 0 1-9.496 0z"/><path id="2644u" d="M385.385 1216.563a4.748 4.748 0 1 1 9.497 0 4.748 4.748 0 0 1-9.497 0z"/><path id="2644v" d="M385.385 1230.664a4.748 4.748 0 1 1 9.497 0 4.748 4.748 0 0 1-9.497 0z"/><path id="2644w" d="M385.385 1245.052a4.748 4.748 0 1 1 9.497 0 4.748 4.748 0 0 1-9.497 0z"/><path id="2644x" d="M314 1273.864a4.748 4.748 0 1 1 9.497 0 4.748 4.748 0 0 1-9.497 0z"/><path id="2644y" d="M328.1 1273.864a4.748 4.748 0 1 1 9.498 0 4.748 4.748 0 0 1-9.497 0z"/><path id="2644z" d="M342.49 1273.864a4.748 4.748 0 1 1 9.496 0 4.748 4.748 0 0 1-9.496 0z"/><path id="2644A" d="M356.59 1273.864a4.748 4.748 0 1 1 9.497 0 4.748 4.748 0 0 1-9.497 0z"/><path id="2644B" d="M399.504 1230.664a4.748 4.748 0 1 1 9.496 0 4.748 4.748 0 0 1-9.496 0z"/></defs><g><g transform="translate(-314 -1183)"><g><use fill="#fff" xlink:href="#2644a"/></g><g><use fill="#fff" xlink:href="#2644b"/></g><g><use fill="#fff" xlink:href="#2644c"/></g><g><use fill="#fff" xlink:href="#2644d"/></g><g><use fill="#fff" xlink:href="#2644e"/></g><g><use fill="#fff" xlink:href="#2644f"/></g><g><use fill="#fff" xlink:href="#2644g"/></g><g><use fill="#fff" xlink:href="#2644h"/></g><g><use fill="#fff" xlink:href="#2644i"/></g><g><use fill="#fff" xlink:href="#2644j"/></g><g><use fill="#fff" xlink:href="#2644k"/></g><g><use fill="#fff" xlink:href="#2644l"/></g><g><use fill="#fff" xlink:href="#2644m"/></g><g><use fill="#fff" xlink:href="#2644n"/></g><g><use fill="#fff" xlink:href="#2644o"/></g><g><use fill="#fff" xlink:href="#2644p"/></g><g><use fill="#fff" xlink:href="#2644q"/></g><g><use fill="#fff" xlink:href="#2644r"/></g><g><use fill="#fff" xlink:href="#2644s"/></g><g><use fill="#fff" xlink:href="#2644t"/></g><g><use fill="#fff" xlink:href="#2644u"/></g><g><use fill="#fff" xlink:href="#2644v"/></g><g><use fill="#fff" xlink:href="#2644w"/></g><g><use fill="#fff" xlink:href="#2644x"/></g><g><use fill="#fff" xlink:href="#2644y"/></g><g><use fill="#fff" xlink:href="#2644z"/></g><g><use fill="#fff" xlink:href="#2644A"/></g><g><use fill="#fff" xlink:href="#2644B"/></g></g></g></svg>