<svg xmlns="http://www.w3.org/2000/svg" xmlns:xlink="http://www.w3.org/1999/xlink" width="25" height="20" viewBox="0 0 25 20"><defs><path id="86hma" d="M1432.117 2473c-1.057 0-2.145-.086-3.239-.257-1.927-.303-3.878-1.31-4.43-1.612l-1.448-.792 1.568-.516c1.713-.563 2.756-.913 4.046-1.46-1.292-.626-2.288-1.751-2.767-3.206l-.365-1.107.3.046a5.438 5.438 0 0 1-.682-.84c-.617-.938-.944-2.083-.874-3.065l.068-.967.579.225a5.408 5.408 0 0 1-.524-1.47c-.253-1.257-.041-2.594.595-3.763l.504-.925.674.81c2.132 2.56 4.832 4.08 8.036 4.524-.131-.902-.033-1.773.292-2.554.377-.908 1.05-1.679 1.943-2.228a5.838 5.838 0 0 1 3.388-.832c1.266.078 2.414.552 3.327 1.372.445-.116.774-.24 1.217-.407.267-.1.57-.214.95-.345l1.395-.48-.91 2.6c.06-.006.122-.01.186-.013l1.491-.067-.881 1.204c-.05.069-.063.089-.081.116-.071.107-.16.24-1.37 1.855a2.278 2.278 0 0 0-.425 1.483c.107 2.099-.15 3.997-.766 5.643a9.986 9.986 0 0 1-2.68 3.97c-1.48 1.334-3.369 2.247-5.612 2.714-1.1.23-2.282.344-3.505.344z"/></defs><g><g transform="translate(-1423 -2453)"><use fill="#c8c8c8" xlink:href="#86hma"/></g></g></svg>