<svg xmlns="http://www.w3.org/2000/svg" xmlns:xlink="http://www.w3.org/1999/xlink" width="27" height="24" viewBox="0 0 27 24"><defs><path id="i63xa" d="M180.674 137.336s-.024.604.566.604l6.811-.008.01-5.581s-.096-.92.797-.92h2.826c1.056 0 .991.92.991.92l-.012 5.563h6.667c.749 0 .715-.752.715-.752v-10.289l-9.396-8.358-9.975 8.358z"/><path id="i63xb" d="M177 126.095s.847 1.561 2.694 0l11.038-9.338 10.349 9.28c2.138 1.542 2.939 0 2.939 0L190.732 114z"/><path id="i63xc" d="M200.83 116.735h-2.662l.011 3.228 2.651 2.249z"/></defs><g><g transform="translate(-177 -114)"><g><use fill="#abc7ff" xlink:href="#i63xa"/></g><g><use fill="#abc7ff" xlink:href="#i63xb"/></g><g><use fill="#abc7ff" xlink:href="#i63xc"/></g></g></g></svg>