<svg xmlns="http://www.w3.org/2000/svg" xmlns:xlink="http://www.w3.org/1999/xlink" width="21" height="21" viewBox="0 0 21 21"><defs><path id="4zwya" d="M1736.461 474.226a1.76 1.76 0 0 1-1.757-1.758c0-.97.788-1.758 1.757-1.758.97 0 1.758.789 1.758 1.758a1.76 1.76 0 0 1-1.758 1.758zm-5.859 9.375a5.28 5.28 0 0 1-5.273-5.274 5.28 5.28 0 0 1 5.273-5.273 5.28 5.28 0 0 1 5.274 5.273 5.28 5.28 0 0 1-5.274 5.274zm7.031-15.235h-14.14a2.933 2.933 0 0 0-2.93 2.93v14.14a2.933 2.933 0 0 0 2.93 2.93h14.14a2.933 2.933 0 0 0 2.93-2.93v-14.14a2.933 2.933 0 0 0-2.93-2.93z"/><path id="4zwyb" d="M1736.461 471.882a.586.586 0 1 0 .001 1.172.586.586 0 0 0 0-1.172z"/><path id="4zwyc" d="M1730.602 474.226a4.107 4.107 0 0 0-4.101 4.101 4.107 4.107 0 0 0 4.101 4.102 4.107 4.107 0 0 0 4.102-4.102 4.107 4.107 0 0 0-4.102-4.101z"/></defs><g><g transform="translate(-1720 -468)"><g><use xlink:href="#4zwya"/></g><g><use xlink:href="#4zwyb"/></g><g><use xlink:href="#4zwyc"/></g></g></g></svg>