<svg xmlns="http://www.w3.org/2000/svg" width="28" height="25" viewBox="0 0 28 25"><g><g><g><g><g><path fill="#fff" d="M23.365 4.49a1.679 1.679 0 0 0-1.553-1.553 1.663 1.663 0 0 0-1.26.446 1.681 1.681 0 0 0-.533 1.225.483.483 0 0 0 .966 0 .705.705 0 0 1 .76-.707.709.709 0 0 1 .105 1.398.811.811 0 0 0-.64.796v.87a.483.483 0 0 0 .967 0v-.753a1.666 1.666 0 0 0 1.188-1.722z"/></g></g></g><g><g><g><path fill="#fff" d="M22.036 8.343a.486.486 0 0 0-.684 0 .487.487 0 0 0 .342.825.486.486 0 0 0 .483-.483.488.488 0 0 0-.141-.342z"/></g></g></g><g><g><g><path fill="#fff" d="M26.767 8.922c0 .8-.65 1.45-1.45 1.45h-2.069c-.15 0-.293.07-.384.19l-1.165 1.528-1.175-1.53a.483.483 0 0 0-.383-.188h-2.07c-.8 0-1.45-.65-1.45-1.45V3.416c0-.8.65-1.45 1.45-1.45h7.247c.799 0 1.449.65 1.449 1.45zM25.317 1H18.07a2.418 2.418 0 0 0-2.415 2.416v5.506a2.418 2.418 0 0 0 2.415 2.416h1.833l1.414 1.842c.092.119.233.188.383.188h.001c.15 0 .292-.07.383-.19l1.403-1.84h1.83a2.418 2.418 0 0 0 2.416-2.416V3.416A2.418 2.418 0 0 0 25.318 1z"/></g></g></g></g><g><g><g><g><path fill="#fff" d="M7.79 17.055a.487.487 0 0 0-.682 0 .487.487 0 0 0 0 .683.487.487 0 0 0 .683 0 .487.487 0 0 0 0-.683z"/></g></g></g><g><g><g><path fill="#fff" d="M23.242 20.809l-.877.876-6.03-6.03.877-.876c.339-.339.79-.525 1.268-.525.48 0 .93.186 1.269.525l3.493 3.493c.338.339.525.79.525 1.268 0 .48-.187.93-.525 1.269zm.683-3.22l-3.493-3.493a2.742 2.742 0 0 0-1.952-.808c-.737 0-1.43.287-1.951.808l-1.218 1.218-.487.487-5.895-5.895 1.705-1.705a2.763 2.763 0 0 0 0-3.903L7.144.808a2.763 2.763 0 0 0-3.903 0l-.92.92c-3.094 3.095-3.094 8.129 0 11.223l3.394 3.394a.483.483 0 0 0 .683-.683l-3.394-3.394c-2.5-2.5-2.7-6.445-.598-9.175l3.67 3.669a.482.482 0 0 0 .682 0 .483.483 0 0 0 0-.683l-3.71-3.71.876-.877c.7-.7 1.838-.7 2.537 0l3.49 3.49c.7.699.7 1.837 0 2.536L7.904 9.565a.483.483 0 0 0 0 .683l6.578 6.578a.483.483 0 0 0 .683 0l.487-.487 5.989 5.989a6.916 6.916 0 0 1-4.248 1.443 6.923 6.923 0 0 1-4.927-2.042l-3.443-3.442a.483.483 0 0 0-.683.683l3.442 3.443a7.883 7.883 0 0 0 5.611 2.324c2.12 0 4.113-.826 5.611-2.324l.92-.92a2.742 2.742 0 0 0 .81-1.953c0-.737-.288-1.43-.81-1.951z"/></g></g></g><g><g><g><path fill="#fff" d="M7.932 7.252a.485.485 0 0 0-.825.342.487.487 0 0 0 .483.483.487.487 0 0 0 .483-.483.487.487 0 0 0-.141-.342z"/></g></g></g></g></g></svg>