<svg xmlns="http://www.w3.org/2000/svg" xmlns:xlink="http://www.w3.org/1999/xlink" width="39" height="42" viewBox="0 0 39 42"><defs><path id="2enva" d="M865.094 886.31h-12.1v-28.094h12.1zm-13.791.008h-21.612v-38.451h21.612zm14.636-29.784h-12.945v-9.513a.842.842 0 0 0-.846-.845h-23.303a.842.842 0 0 0-.845.845v40.134c0 .47.376.845.845.845h37.094c.47 0 .845-.376.845-.845v-29.776a.842.842 0 0 0-.845-.845z"/><path id="2envb" d="M856.29 862.511h5.507c.47 0 .846-.376.846-.845a.842.842 0 0 0-.846-.846h-5.507a.842.842 0 0 0-.846.846c0 .46.376.845.846.845z"/><path id="2envc" d="M856.29 866.755h5.507c.47 0 .846-.376.846-.845a.842.842 0 0 0-.846-.846h-5.507a.842.842 0 0 0-.846.846c0 .47.376.845.846.845z"/><path id="2envd" d="M856.29 870.99h5.507c.47 0 .846-.375.846-.845a.842.842 0 0 0-.846-.846h-5.507a.842.842 0 0 0-.846.846c0 .47.376.845.846.845z"/><path id="2enve" d="M856.29 875.234h5.507c.47 0 .846-.376.846-.845a.842.842 0 0 0-.846-.846h-5.507a.842.842 0 0 0-.846.846c0 .47.376.845.846.845z"/><path id="2envf" d="M856.29 879.47h5.507c.47 0 .846-.376.846-.846a.842.842 0 0 0-.846-.845h-5.507a.842.842 0 0 0-.846.845c0 .461.376.846.846.846z"/><path id="2envg" d="M856.29 883.713h5.507c.47 0 .846-.375.846-.845a.842.842 0 0 0-.846-.845h-5.507a.842.842 0 0 0-.846.845c0 .47.376.845.846.845z"/><path id="2envh" d="M833.61 854.459c.47 0 .845-.376.845-.846v-1.87a.842.842 0 0 0-.845-.845.842.842 0 0 0-.845.845v1.87c0 .47.375.846.845.846z"/><path id="2envi" d="M838.204 854.459c.47 0 .845-.376.845-.846v-1.87a.842.842 0 0 0-.845-.845.842.842 0 0 0-.845.845v1.87c0 .47.375.846.845.846z"/><path id="2envj" d="M842.79 854.459c.47 0 .845-.376.845-.846v-1.87a.842.842 0 0 0-.845-.845.842.842 0 0 0-.846.845v1.87c0 .47.384.846.846.846z"/><path id="2envk" d="M847.384 854.459c.47 0 .845-.376.845-.846v-1.87a.842.842 0 0 0-.845-.845.842.842 0 0 0-.846.845v1.87c0 .47.376.846.846.846z"/><path id="2envl" d="M833.61 860.248c.47 0 .845-.376.845-.845v-1.879a.842.842 0 0 0-.845-.845.842.842 0 0 0-.845.845v1.879c0 .46.375.845.845.845z"/><path id="2envm" d="M838.204 860.248c.47 0 .845-.376.845-.845v-1.879a.842.842 0 0 0-.845-.845.842.842 0 0 0-.845.845v1.879c0 .46.375.845.845.845z"/><path id="2envn" d="M842.79 860.248c.47 0 .845-.376.845-.845v-1.879a.842.842 0 0 0-.845-.845.842.842 0 0 0-.846.845v1.879c0 .46.384.845.846.845z"/><path id="2envo" d="M847.384 860.248c.47 0 .845-.376.845-.845v-1.879a.842.842 0 0 0-.845-.845.842.842 0 0 0-.846.845v1.879c0 .46.376.845.846.845z"/><path id="2envp" d="M833.61 866.03c.47 0 .845-.377.845-.846v-1.87a.842.842 0 0 0-.845-.846.842.842 0 0 0-.845.846v1.87c0 .47.375.845.845.845z"/><path id="2envq" d="M838.204 866.03c.47 0 .845-.377.845-.846v-1.87a.842.842 0 0 0-.845-.846.842.842 0 0 0-.845.846v1.87c0 .47.375.845.845.845z"/><path id="2envr" d="M842.79 866.03c.47 0 .845-.377.845-.846v-1.87a.842.842 0 0 0-.845-.846.842.842 0 0 0-.846.846v1.87c0 .47.384.845.846.845z"/><path id="2envs" d="M847.384 866.03c.47 0 .845-.377.845-.846v-1.87a.842.842 0 0 0-.845-.846.842.842 0 0 0-.846.846v1.87c0 .47.376.845.846.845z"/><path id="2envt" d="M833.61 871.819c.47 0 .845-.376.845-.846v-1.87a.842.842 0 0 0-.845-.845.842.842 0 0 0-.845.845v1.87c0 .461.375.846.845.846z"/><path id="2envu" d="M838.204 871.819c.47 0 .845-.376.845-.846v-1.87a.842.842 0 0 0-.845-.845.842.842 0 0 0-.845.845v1.87c0 .461.375.846.845.846z"/><path id="2envv" d="M842.79 871.819c.47 0 .845-.376.845-.846v-1.87a.842.842 0 0 0-.845-.845.842.842 0 0 0-.846.845v1.87c0 .461.384.846.846.846z"/><path id="2envw" d="M847.384 871.819c.47 0 .845-.376.845-.846v-1.87a.842.842 0 0 0-.845-.845.842.842 0 0 0-.846.845v1.87c0 .461.376.846.846.846z"/><path id="2envx" d="M833.61 877.6c.47 0 .845-.376.845-.846v-1.87a.842.842 0 0 0-.845-.845.842.842 0 0 0-.845.845v1.87c0 .47.375.845.845.845z"/><path id="2envy" d="M838.204 877.6c.47 0 .845-.376.845-.846v-1.87a.842.842 0 0 0-.845-.845.842.842 0 0 0-.845.845v1.87c0 .47.375.845.845.845z"/><path id="2envz" d="M842.79 877.6c.47 0 .845-.376.845-.846v-1.87a.842.842 0 0 0-.845-.845.842.842 0 0 0-.846.845v1.87c0 .47.384.845.846.845z"/><path id="2envA" d="M847.384 877.6c.47 0 .845-.376.845-.846v-1.87a.842.842 0 0 0-.845-.845.842.842 0 0 0-.846.845v1.87c0 .47.376.845.846.845z"/><path id="2envB" d="M833.61 883.389c.47 0 .845-.376.845-.845v-1.879a.842.842 0 0 0-.845-.845.842.842 0 0 0-.845.845v1.879c0 .46.375.845.845.845z"/><path id="2envC" d="M838.204 883.389c.47 0 .845-.376.845-.845v-1.879a.842.842 0 0 0-.845-.845.842.842 0 0 0-.845.845v1.879c0 .46.375.845.845.845z"/><path id="2envD" d="M842.79 883.389c.47 0 .845-.376.845-.845v-1.879a.842.842 0 0 0-.845-.845.842.842 0 0 0-.846.845v1.879c0 .46.384.845.846.845z"/><path id="2envE" d="M847.384 883.389c.47 0 .845-.376.845-.845v-1.879a.842.842 0 0 0-.845-.845.842.842 0 0 0-.846.845v1.879c0 .46.376.845.846.845z"/></defs><g><g transform="translate(-828 -846)"><g><g><use fill="#abc7ff" xlink:href="#2enva"/></g><g><use fill="#abc7ff" xlink:href="#2envb"/></g><g><use fill="#abc7ff" xlink:href="#2envc"/></g><g><use fill="#abc7ff" xlink:href="#2envd"/></g><g><use fill="#abc7ff" xlink:href="#2enve"/></g><g><use fill="#abc7ff" xlink:href="#2envf"/></g><g><use fill="#abc7ff" xlink:href="#2envg"/></g><g><use fill="#abc7ff" xlink:href="#2envh"/></g><g><use fill="#abc7ff" xlink:href="#2envi"/></g><g><use fill="#abc7ff" xlink:href="#2envj"/></g><g><use fill="#abc7ff" xlink:href="#2envk"/></g><g><use fill="#abc7ff" xlink:href="#2envl"/></g><g><use fill="#abc7ff" xlink:href="#2envm"/></g><g><use fill="#abc7ff" xlink:href="#2envn"/></g><g><use fill="#abc7ff" xlink:href="#2envo"/></g><g><use fill="#abc7ff" xlink:href="#2envp"/></g><g><use fill="#abc7ff" xlink:href="#2envq"/></g><g><use fill="#abc7ff" xlink:href="#2envr"/></g><g><use fill="#abc7ff" xlink:href="#2envs"/></g><g><use fill="#abc7ff" xlink:href="#2envt"/></g><g><use fill="#abc7ff" xlink:href="#2envu"/></g><g><use fill="#abc7ff" xlink:href="#2envv"/></g><g><use fill="#abc7ff" xlink:href="#2envw"/></g><g><use fill="#abc7ff" xlink:href="#2envx"/></g><g><use fill="#abc7ff" xlink:href="#2envy"/></g><g><use fill="#abc7ff" xlink:href="#2envz"/></g><g><use fill="#abc7ff" xlink:href="#2envA"/></g><g><use fill="#abc7ff" xlink:href="#2envB"/></g><g><use fill="#abc7ff" xlink:href="#2envC"/></g><g><use fill="#abc7ff" xlink:href="#2envD"/></g><g><use fill="#abc7ff" xlink:href="#2envE"/></g></g></g></g></svg>