<svg xmlns="http://www.w3.org/2000/svg" xmlns:xlink="http://www.w3.org/1999/xlink" width="52" height="33" viewBox="0 0 52 33"><defs><path id="egnqa" d="M311.874 878.342a13.443 13.443 0 0 0-3.11-5.708 8.722 8.722 0 0 1 5.646-2.125h.123c4.486.031 8.181 3.46 8.643 7.833zm-1.221 4.085a3.825 3.825 0 0 1-3.819 3.819h-15.91a3.825 3.825 0 0 1-3.82-3.819v-.698c0-6.374 5.092-11.59 11.426-11.774.113.01.236.01.349.01.113 0 .236 0 .349-.01 6.333.185 11.425 5.4 11.425 11.774zm-24.77-4.085h-11.22c.462-4.373 4.157-7.802 8.643-7.833h.123a8.68 8.68 0 0 1 5.595 2.084 13.478 13.478 0 0 0-3.141 5.749zm-6.796-13.756c0-2.36 1.92-4.28 4.28-4.28 2.362 0 4.281 1.92 4.281 4.28 0 2.33-1.878 4.23-4.198 4.28h-.164a4.281 4.281 0 0 1-4.199-4.28zm13.92-2.135a5.866 5.866 0 0 1 5.861-5.861 5.866 5.866 0 0 1 5.862 5.861 5.87 5.87 0 0 1-5.523 5.851h-.677a5.87 5.87 0 0 1-5.523-5.85zm17.184 2.135c0-2.36 1.92-4.28 4.28-4.28 2.361 0 4.281 1.92 4.281 4.28 0 2.33-1.878 4.23-4.198 4.28h-.165a4.274 4.274 0 0 1-4.198-4.28zm7.678 4.856a5.919 5.919 0 0 0-3.398-10.768 5.919 5.919 0 0 0-5.923 5.923c0 2.001.996 3.777 2.526 4.845a10.262 10.262 0 0 0-3.5 2.053 13.28 13.28 0 0 0-4.805-2.618 7.52 7.52 0 0 0 3.624-6.426 7.5 7.5 0 0 0-7.504-7.504 7.507 7.507 0 0 0-3.88 13.93 13.39 13.39 0 0 0-4.753 2.587 10.346 10.346 0 0 0-3.46-2.012 5.919 5.919 0 0 0-3.398-10.768 5.919 5.919 0 0 0-5.922 5.923c0 2.002.995 3.777 2.525 4.845-4.075 1.406-7.001 5.276-7.001 9.824v.677c0 .02.02.041.041.041h12.554c-.071.565-.113 1.15-.113 1.735v.698a5.459 5.459 0 0 0 5.462 5.461h15.91a5.459 5.459 0 0 0 5.462-5.46v-.699c0-.585-.041-1.17-.113-1.735h12.636c.02 0 .041-.02.041-.04v-.678a10.437 10.437 0 0 0-7.01-9.834z"/></defs><g><g transform="translate(-273 -855)"><g><g><use fill="#abc7ff" xlink:href="#egnqa"/></g></g></g></g></svg>