<svg xmlns="http://www.w3.org/2000/svg" xmlns:xlink="http://www.w3.org/1999/xlink" width="39" height="42" viewBox="0 0 39 42"><defs><path id="9242a" d="M612.642 886.606h-11.85v-4.183a.697.697 0 0 0-.697-.697H588.94a.697.697 0 0 0-.697.697v4.183h-11.85v-14.228l11.153-6.196v5.785a.697.697 0 0 0 1.035.61l11.513-6.395v5.785a.697.697 0 0 0 1.035.61l6.574-3.652 3.056-1.698 1.882-1.045zm-13.245 0h-4.182v-3.485h4.182zm-5.576 0h-4.183v-3.485h4.183zm11.75-36.248h3.685l.453 15.858-4.665 2.59zm.08-2.788h3.525l.04 1.394h-3.604zm8.041 16.826a.697.697 0 0 0-.691-.009l-1.919 1.066-.531-18.6a.697.697 0 0 0-.697-.677h-4.88c-.377 0-.687.3-.697.677l-.65 22.744-2.138 1.185v-5.785a.697.697 0 0 0-1.035-.61l-11.513 6.395v-5.785a.697.697 0 0 0-1.035-.61l-12.547 6.971a.697.697 0 0 0-.359.61v15.335c0 .385.312.697.697.697h37.642a.697.697 0 0 0 .697-.697v-22.306a.697.697 0 0 0-.344-.601z"/><path id="9242b" d="M584.062 876.847h-4.183v-1.394h4.183zm.697-2.788h-5.577a.697.697 0 0 0-.697.697v2.788c0 .385.312.697.697.697h5.577a.697.697 0 0 0 .697-.697v-2.788a.697.697 0 0 0-.697-.697z"/><path id="9242c" d="M596.61 876.847h-4.183v-1.394h4.182zm.696-2.788h-5.576a.697.697 0 0 0-.697.697v2.788c0 .385.312.697.697.697h5.576a.697.697 0 0 0 .697-.697v-2.788a.697.697 0 0 0-.697-.697z"/><path id="9242d" d="M609.156 876.847h-4.182v-1.394h4.182zm.698-2.788h-5.577a.697.697 0 0 0-.697.697v2.788c0 .385.312.697.697.697h5.576a.697.697 0 0 0 .698-.697v-2.788a.697.697 0 0 0-.697-.697z"/></defs><g><g transform="translate(-575 -846)"><g><g><g><use fill="#abc7ff" xlink:href="#9242a"/></g></g></g><g><g><g><use fill="#abc7ff" xlink:href="#9242b"/></g></g></g><g><g><g><use fill="#abc7ff" xlink:href="#9242c"/></g></g></g><g><g><g><use fill="#abc7ff" xlink:href="#9242d"/></g></g></g></g></g></svg>