<svg xmlns="http://www.w3.org/2000/svg" xmlns:xlink="http://www.w3.org/1999/xlink" width="44" height="43" viewBox="0 0 44 43"><defs><path id="9mhua" d="M1099.124 886.847h-10.168v-4.357h10.168zm-19.61 0v-5.81h4.358v5.81zm-5.81-5.81h4.358v5.81h-4.358zm-3.63.726v-32.682h17.43v37.766h-2.179v-6.536c0-.436-.29-.726-.726-.726h-11.62c-.437 0-.727.29-.727.726v6.536h-2.179v-5.084zm-11.621.727h10.167v4.357h-10.167zm0-26.146h10.167v24.693h-10.167zm40.671 0v24.693h-10.168v-24.693zm.727-1.453h-2.18v-.726c0-.436-.29-.726-.725-.726-.436 0-.727.29-.727.726v.726h-2.905v-.726c0-.436-.29-.726-.726-.726s-.726.29-.726.726v.726h-2.905v-6.536c0-.436-.291-.727-.727-.727h-6.536v-.726c0-.436-.29-.726-.727-.726-.435 0-.726.29-.726.726v.726h-2.905v-.726c0-.436-.29-.726-.726-.726s-.726.29-.726.726v.726h-6.537c-.436 0-.726.29-.726.727v6.536h-2.906v-.726c0-.436-.29-.726-.726-.726s-.726.29-.726.726v.726h-2.905v-.726c0-.436-.29-.726-.727-.726-.435 0-.726.29-.726.726v.726h-2.179c-.435 0-.726.29-.726.726v31.957c0 .435.29.726.726.726h42.125c.435 0 .726-.29.726-.726v-31.957c0-.435-.29-.726-.726-.726z"/><path id="9mhub" d="M1074.43 854.165h1.453v1.452h-1.452zm0 2.905h1.453c.8 0 1.453-.654 1.453-1.453v-1.452c0-.8-.654-1.453-1.453-1.453h-1.452c-.8 0-1.453.654-1.453 1.453v1.452c0 .8.654 1.453 1.453 1.453z"/><path id="9mhuc" d="M1081.694 854.165h1.452v1.452h-1.452zm0 2.905h1.452c.8 0 1.453-.654 1.453-1.453v-1.452c0-.8-.654-1.453-1.453-1.453h-1.452c-.8 0-1.453.654-1.453 1.453v1.452c0 .8.654 1.453 1.453 1.453z"/><path id="9mhud" d="M1074.43 859.975h1.453v1.453h-1.452zm0 2.905h1.453c.8 0 1.453-.654 1.453-1.452v-1.453c0-.799-.654-1.453-1.453-1.453h-1.452c-.8 0-1.453.654-1.453 1.453v1.453c0 .798.654 1.452 1.453 1.452z"/><path id="9mhue" d="M1081.694 859.975h1.452v1.453h-1.452zm0 2.905h1.452c.8 0 1.453-.654 1.453-1.452v-1.453c0-.799-.654-1.453-1.453-1.453h-1.452c-.8 0-1.453.654-1.453 1.453v1.453c0 .798.654 1.452 1.453 1.452z"/><path id="9mhuf" d="M1074.43 865.785h1.453v1.453h-1.452zm0 2.905h1.453c.8 0 1.453-.653 1.453-1.452v-1.453c0-.799-.654-1.452-1.453-1.452h-1.452c-.8 0-1.453.653-1.453 1.452v1.453c0 .799.654 1.452 1.453 1.452z"/><path id="9mhug" d="M1081.694 865.785h1.452v1.453h-1.452zm0 2.905h1.452c.8 0 1.453-.653 1.453-1.452v-1.453c0-.799-.654-1.452-1.453-1.452h-1.452c-.8 0-1.453.653-1.453 1.452v1.453c0 .799.654 1.452 1.453 1.452z"/><path id="9mhuh" d="M1074.43 871.596h1.453v1.452h-1.452zm0 2.905h1.453c.8 0 1.453-.654 1.453-1.453v-1.453c0-.798-.654-1.452-1.453-1.452h-1.452c-.8 0-1.453.654-1.453 1.452v1.453c0 .799.654 1.453 1.453 1.453z"/><path id="9mhui" d="M1081.694 871.596h1.452v1.452h-1.452zm0 2.905h1.452c.8 0 1.453-.654 1.453-1.453v-1.453c0-.798-.654-1.452-1.453-1.452h-1.452c-.8 0-1.453.654-1.453 1.452v1.453c0 .799.654 1.453 1.453 1.453z"/><path id="9mhuj" d="M1093.314 859.249h1.453v1.452h-1.453zm0 2.905h1.453c.799 0 1.452-.654 1.452-1.453v-1.452c0-.8-.653-1.453-1.452-1.453h-1.453c-.799 0-1.452.654-1.452 1.453v1.452c0 .8.653 1.453 1.452 1.453z"/><path id="9mhuk" d="M1093.314 865.059h1.453v1.453h-1.453zm0 2.905h1.453c.799 0 1.452-.654 1.452-1.452v-1.453c0-.799-.653-1.453-1.452-1.453h-1.453c-.799 0-1.452.654-1.452 1.453v1.453c0 .798.653 1.452 1.452 1.452z"/><path id="9mhul" d="M1093.314 870.87h1.453v1.452h-1.453zm0 2.904h1.453c.799 0 1.452-.653 1.452-1.452v-1.453c0-.799-.653-1.452-1.452-1.452h-1.453c-.799 0-1.452.653-1.452 1.452v1.453c0 .799.653 1.452 1.452 1.452z"/><path id="9mhum" d="M1093.314 876.68h1.453v1.452h-1.453zm0 2.905h1.453c.799 0 1.452-.654 1.452-1.453v-1.453c0-.798-.653-1.452-1.452-1.452h-1.453c-.799 0-1.452.654-1.452 1.452v1.453c0 .799.653 1.453 1.452 1.453z"/><path id="9mhun" d="M1064.263 860.701h-1.453v-1.452h1.453v1.452zm0-2.905h-1.453c-.799 0-1.452.654-1.452 1.453v1.452c0 .8.653 1.453 1.452 1.453h1.453c.799 0 1.452-.654 1.452-1.453v-1.452c0-.8-.653-1.453-1.452-1.453z"/><path id="9mhuo" d="M1064.263 866.512h-1.453v-1.453h1.453v1.453zm0-2.906h-1.453c-.799 0-1.452.654-1.452 1.453v1.453c0 .798.653 1.452 1.452 1.452h1.453c.799 0 1.452-.654 1.452-1.452v-1.453c0-.799-.653-1.453-1.452-1.453z"/><path id="9mhup" d="M1064.263 872.322h-1.453v-1.453h1.453v1.453zm0-2.905h-1.453c-.799 0-1.452.653-1.452 1.452v1.453c0 .799.653 1.452 1.452 1.452h1.453c.799 0 1.452-.653 1.452-1.452v-1.453c0-.799-.653-1.452-1.452-1.452z"/><path id="9mhuq" d="M1064.263 878.132h-1.453v-1.453h1.453v1.453zm0-2.905h-1.453c-.799 0-1.452.654-1.452 1.452v1.453c0 .799.653 1.453 1.452 1.453h1.453c.799 0 1.452-.654 1.452-1.453v-1.453c0-.798-.653-1.452-1.452-1.452z"/></defs><g><g transform="translate(-1057 -846)"><g><g><g><use fill="#abc7ff" xlink:href="#9mhua"/></g><g><use fill="#abc7ff" xlink:href="#9mhub"/></g><g><use fill="#abc7ff" xlink:href="#9mhuc"/></g><g><use fill="#abc7ff" xlink:href="#9mhud"/></g><g><use fill="#abc7ff" xlink:href="#9mhue"/></g><g><use fill="#abc7ff" xlink:href="#9mhuf"/></g><g><use fill="#abc7ff" xlink:href="#9mhug"/></g><g><use fill="#abc7ff" xlink:href="#9mhuh"/></g><g><use fill="#abc7ff" xlink:href="#9mhui"/></g><g><use fill="#abc7ff" xlink:href="#9mhuj"/></g><g><use fill="#abc7ff" xlink:href="#9mhuk"/></g><g><use fill="#abc7ff" xlink:href="#9mhul"/></g><g><use fill="#abc7ff" xlink:href="#9mhum"/></g><g><use fill="#abc7ff" xlink:href="#9mhun"/></g><g><use fill="#abc7ff" xlink:href="#9mhuo"/></g><g><use fill="#abc7ff" xlink:href="#9mhup"/></g><g><use fill="#abc7ff" xlink:href="#9mhuq"/></g></g></g></g></g></svg>