<svg xmlns="http://www.w3.org/2000/svg" xmlns:xlink="http://www.w3.org/1999/xlink" width="42" height="42" viewBox="0 0 42 42"><defs><path id="1kc7a" d="M1321.974 885.212h-19.518a.697.697 0 0 0-.697.697v1.394a.697.697 0 0 0 1.394 0v-.697h18.821a.697.697 0 0 0 0-1.394z"/><path id="1kc7b" d="M1308.73 860.117h1.394v2.788h-1.394zm-1.394 3.486c0 .384.312.697.697.697h2.788a.697.697 0 0 0 .697-.697v-4.183a.697.697 0 0 0-.697-.697h-2.788a.697.697 0 0 0-.697.697v4.183z"/><path id="1kc7c" d="M1301.062 854.54h-8.365a.697.697 0 0 0-.697.698v13.941a.697.697 0 0 0 1.394 0v-13.244h7.668a.697.697 0 0 0 0-1.394z"/><path id="1kc7d" d="M1326.854 876.847h1.394v2.788h-1.394zm-1.395 3.485c0 .385.313.697.697.697h2.789a.697.697 0 0 0 .697-.697v-4.182a.697.697 0 0 0-.697-.697h-2.789a.697.697 0 0 0-.697.697z"/><path id="1kc7e" d="M1295.485 882.423a2.094 2.094 0 0 1-2.09-2.09c0-3.474.932-7.669 2.09-7.669 1.159 0 2.092 4.195 2.092 7.668a2.094 2.094 0 0 1-2.092 2.091zm0-11.153c-3.445 0-3.485 8.972-3.485 9.062 0 1.684 1.2 3.091 2.788 3.415v3.556a.697.697 0 0 0 1.394 0v-3.556a3.491 3.491 0 0 0 2.789-3.415c0-.09-.04-9.062-3.486-9.062z"/><path id="1kc7f" d="M1299.668 867.088h-2.789a.697.697 0 0 0-.697.697v1.394a.697.697 0 0 0 1.395 0v-.697h1.394v3.485a.697.697 0 0 0 1.394 0v-4.182a.697.697 0 0 0-.697-.697z"/><path id="1kc7g" d="M1326.854 860.117h1.394v2.788h-1.394zm-.698 4.183h2.789a.697.697 0 0 0 .697-.697v-4.183a.697.697 0 0 0-.697-.697h-2.789a.697.697 0 0 0-.697.697v4.183c0 .384.313.697.697.697z"/><path id="1kc7h" d="M1298.97 862.905h-1.393v-2.788h1.394v2.788zm.698-4.182h-2.789a.697.697 0 0 0-.697.697v4.183c0 .384.313.697.697.697h2.789a.697.697 0 0 0 .697-.697v-4.183a.697.697 0 0 0-.697-.697z"/><path id="1kc7i" d="M1315.7 860.117h1.394v2.788h-1.394zm-1.394 3.486c0 .384.313.697.697.697h2.789a.697.697 0 0 0 .697-.697v-4.183a.697.697 0 0 0-.697-.697h-2.789a.697.697 0 0 0-.697.697z"/><path id="1kc7j" d="M1331.733 886.606h-5.577a.698.698 0 0 1 0-1.394c.134 0 .261.038.378.113a.699.699 0 0 0 1.057-.428 1.385 1.385 0 0 1 1.354-1.08c.65 0 1.206.445 1.353 1.08a.695.695 0 0 0 1.057.428c.454-.292 1.075.066 1.075.584a.698.698 0 0 1-.697.697zm1.394-32.065h-8.365a.697.697 0 0 0 0 1.394h7.668v28.01a2.064 2.064 0 0 0-.697-.127c-.12 0-.24.01-.358.03a2.768 2.768 0 0 0-2.43-1.425c-1.034 0-1.95.56-2.43 1.426a2.094 2.094 0 0 0-2.45 2.06c0 1.153.939 2.091 2.092 2.091h5.576a2.094 2.094 0 0 0 2.091-2.091v-30.671a.697.697 0 0 0-.697-.697z"/><path id="1kc7k" d="M1315.7 851.752h1.394v2.789h-1.394v-2.789zm-.697 4.183h2.789a.697.697 0 0 0 .697-.697v-4.183a.697.697 0 0 0-.697-.697h-2.789a.697.697 0 0 0-.697.697v4.183c0 .384.313.697.697.697z"/><path id="1kc7l" d="M1315.7 868.482h1.394v2.788h-1.394zm-1.394 3.485c0 .385.313.697.697.697h2.789a.697.697 0 0 0 .697-.697v-4.182a.697.697 0 0 0-.697-.697h-2.789a.697.697 0 0 0-.697.697z"/><path id="1kc7m" d="M1308.73 851.752h1.394v2.789h-1.394zm-.697 4.183h2.788a.697.697 0 0 0 .697-.697v-4.183a.697.697 0 0 0-.697-.697h-2.788a.697.697 0 0 0-.697.697v4.183c0 .384.312.697.697.697z"/><path id="1kc7n" d="M1312.417 879.837a.733.733 0 0 0-.202.495c0 .182.077.363.202.495a.733.733 0 0 0 .495.202.733.733 0 0 0 .495-.202.733.733 0 0 0 .202-.495.733.733 0 0 0-.202-.495.73.73 0 0 0-.99 0z"/><path id="1kc7o" d="M1308.73 868.482h1.394v2.788h-1.394zm-1.394 3.485c0 .385.312.697.697.697h2.788a.697.697 0 0 0 .697-.697v-4.182a.697.697 0 0 0-.697-.697h-2.788a.697.697 0 0 0-.697.697v4.182z"/><path id="1kc7p" d="M1305.941 876.15c0 .384.313.697.697.697h2.092v6.273a.697.697 0 0 0 1.394 0v-6.273h5.576v6.273a.697.697 0 0 0 1.394 0v-6.273h2.092a.697.697 0 0 0 0-1.394h-12.548a.697.697 0 0 0-.697.697z"/><path id="1kc7q" d="M1326.854 868.482h1.394v2.788h-1.394zm-1.395 3.485c0 .385.313.697.697.697h2.789a.697.697 0 0 0 .697-.697v-4.182a.697.697 0 0 0-.697-.697h-2.789a.697.697 0 0 0-.697.697z"/><path id="1kc7r" d="M1321.974 846.176h-18.124a.697.697 0 0 0-.697.697v36.247a.697.697 0 0 0 1.394 0v-35.55h16.73v35.55a.697.697 0 0 0 1.394 0v-36.247a.697.697 0 0 0-.697-.697z"/></defs><g><g transform="translate(-1292 -846)"><g><g><g><use fill="#abc7ff" xlink:href="#1kc7a"/></g><g><use fill="#abc7ff" xlink:href="#1kc7b"/></g><g><use fill="#abc7ff" xlink:href="#1kc7c"/></g><g><use fill="#abc7ff" xlink:href="#1kc7d"/></g><g><use fill="#abc7ff" xlink:href="#1kc7e"/></g><g><use fill="#abc7ff" xlink:href="#1kc7f"/></g><g><use fill="#abc7ff" xlink:href="#1kc7g"/></g><g><use fill="#abc7ff" xlink:href="#1kc7h"/></g><g><use fill="#abc7ff" xlink:href="#1kc7i"/></g><g><use fill="#abc7ff" xlink:href="#1kc7j"/></g><g><use fill="#abc7ff" xlink:href="#1kc7k"/></g><g><use fill="#abc7ff" xlink:href="#1kc7l"/></g><g><use fill="#abc7ff" xlink:href="#1kc7m"/></g><g><use fill="#abc7ff" xlink:href="#1kc7n"/></g><g><use fill="#abc7ff" xlink:href="#1kc7o"/></g><g><use fill="#abc7ff" xlink:href="#1kc7p"/></g><g><use fill="#abc7ff" xlink:href="#1kc7q"/></g><g><use fill="#abc7ff" xlink:href="#1kc7r"/></g></g></g></g></g></svg>