<svg data-name="Capa 1" xmlns="http://www.w3.org/2000/svg" width="512" height="512" viewBox="0 0 512 512"><title>clock</title><circle cx="256" cy="66.69" r="15.06" fill="#2acb1e"/><path d="M256 512C115.09 512 0 396.91 0 256S115.09 0 256 0s256 114 256 254.92S396.91 512 256 512zm0-480.81a223.73 223.73 0 1 0 223.73 223.73C479.73 132.3 379.7 31.19 256 31.19z" fill="#2acb1e"/><circle cx="256" cy="444.24" r="15.06" fill="#2acb1e"/><circle cx="444.24" cy="254.92" r="15.06" fill="#2acb1e"/><circle cx="67.76" cy="254.92" r="15.06" fill="#2acb1e"/><path d="M250.62 288.27c-4.3 0-8.61-1.08-11.83-4.3l-51.63-53.78a16 16 0 0 1 22.59-22.59l40.87 40.87 94.66-94.66a16 16 0 1 1 22.59 22.59L262.45 282.89a17.28 17.28 0 0 1-11.83 5.38z" fill="#2acb1e"/></svg>