<svg data-name="Layer 1" xmlns="http://www.w3.org/2000/svg" width="384.05" height="512" viewBox="0 0 384.05 512"><title>place</title><path d="M382.84 494l-67.5-142.78a12.63 12.63 0 0 0-6.48-6.22l-33.58-15 58.18-97.52c.14-.23.27-.47.39-.71a159.36 159.36 0 0 0-30-185.92A159.29 159.29 0 0 0 50.19 231.78q.19.36.39.71L108.77 330l-33.74 15a12.63 12.63 0 0 0-6.29 6.14L1.22 494a12.63 12.63 0 0 0 16.56 16.94l84.56-37.65 84.56 37.65a12.64 12.64 0 0 0 10.28 0l84.56-37.65 84.56 37.65A12.63 12.63 0 0 0 382.84 494zM72.5 219.91a132.51 132.51 0 0 1-14.47-61.46C58.46 86 117.72 26.28 190.13 25.28a134.05 134.05 0 0 1 121.43 194.63L202.88 402.05a12.63 12.63 0 0 1-21.7 0zm214.36 228a12.64 12.64 0 0 0-10.28 0l-84.55 37.63-84.56-37.65a12.64 12.64 0 0 0-10.28 0L38.62 474l50.94-107.75 32.26-14.36L159.48 415a37.9 37.9 0 0 0 65.09 0l37.67-63.13 32.26 14.36L345.44 474z" fill="#2acb1e"/><path d="M192.03 101.61a57.66 57.66 0 1 0 57.66 57.66 57.72 57.72 0 0 0-57.66-57.66zm0 90a32.39 32.39 0 1 1 32.39-32.39 32.43 32.43 0 0 1-32.39 32.44z" fill="#2acb1e"/></svg>