<svg width="92" height="91" viewBox="0 0 92 91" fill="none" xmlns="http://www.w3.org/2000/svg">
<circle cx="76.5087" cy="13.4914" r="3.5" transform="rotate(-179.858 76.5087 13.4914)" fill="#B7B7B7"/>
<circle cx="45.5012" cy="45.5074" r="21.5" transform="rotate(-179.858 45.5012 45.5074)" fill="#B7B7B7"/>
<circle cx="24" cy="85" r="5" fill="#B7B7B7"/>
<circle cx="45.9826" cy="45.8888" r="44.5" transform="rotate(-179.858 45.9826 45.8888)" stroke="#B7B7B7" stroke-opacity="0.3"/>
<path d="M38.0518 49.627H43.4219V52H34.9668V39.2031H38.0518V49.627ZM54.9971 45.8652C54.9971 47.1133 54.7656 48.2178 54.3027 49.1787C53.8398 50.1396 53.1807 50.8809 52.3252 51.4023C51.4756 51.918 50.5059 52.1758 49.416 52.1758C48.3262 52.1758 47.3594 51.9268 46.5156 51.4287C45.6719 50.9248 45.0127 50.207 44.5381 49.2754C44.0693 48.3438 43.8232 47.2744 43.7998 46.0674V45.3467C43.7998 44.0928 44.0283 42.9883 44.4854 42.0332C44.9482 41.0723 45.6074 40.3311 46.4629 39.8096C47.3242 39.2881 48.3027 39.0273 49.3984 39.0273C50.4824 39.0273 51.4492 39.2852 52.2988 39.8008C53.1484 40.3164 53.8076 41.0518 54.2764 42.0068C54.751 42.9561 54.9912 44.0459 54.9971 45.2764V45.8652ZM51.8594 45.3291C51.8594 44.0576 51.6455 43.0938 51.2178 42.4375C50.7959 41.7754 50.1895 41.4443 49.3984 41.4443C47.8516 41.4443 47.0342 42.6045 46.9463 44.9248L46.9375 45.8652C46.9375 47.1191 47.1455 48.083 47.5615 48.7568C47.9775 49.4307 48.5957 49.7676 49.416 49.7676C50.1953 49.7676 50.7959 49.4365 51.2178 48.7744C51.6396 48.1123 51.8535 47.1602 51.8594 45.918V45.3291Z" fill="white" fill-opacity="0.2"/>
</svg>
