<!DOCTYPE svg PUBLIC "-//W3C//DTD SVG 20010904//EN" "http://www.w3.org/TR/2001/REC-SVG-20010904/DTD/svg10.dtd">
<svg version="1.0" xmlns="http://www.w3.org/2000/svg" width="76px" height="74px" viewBox="0 0 760 740" preserveAspectRatio="xMidYMid meet">
<g id="layer101" fill="#ffffff" stroke="none">
 <path d="M241 721 c-100 -38 -184 -121 -223 -223 -30 -79 -23 -212 14 -288 35 -71 107 -143 178 -178 50 -25 65 -27 170 -27 105 0 120 2 170 27 71 35 143 107 178 178 24 49 27 66 27 160 0 94 -3 111 -27 160 -35 71 -107 143 -178 177 -76 37 -228 43 -309 14z m293 -50 c121 -59 191 -170 191 -301 0 -65 -5 -85 -33 -142 -38 -77 -92 -130 -171 -167 -81 -37 -201 -37 -282 0 -79 37 -133 90 -171 167 -60 122 -40 261 52 365 101 115 273 148 414 78z"/>
 <path d="M270 370 c0 -184 1 -200 18 -200 21 0 302 186 302 200 0 14 -281 200 -302 200 -17 0 -18 -16 -18 -200z m260 0 c0 -3 -50 -38 -110 -78 l-110 -72 0 150 0 150 110 -72 c60 -40 110 -75 110 -78z"/>
 </g>

</svg>