<svg id="viber" xmlns="http://www.w3.org/2000/svg" width="30" height="30" viewBox="0 0 30 30">
  <circle id="Ellipse_1" data-name="Ellipse 1" cx="15" cy="15" r="15" fill="#6f3faa"/>
  <path id="Path_5" data-name="Path 5" d="M144.446,120.757c-3.651-.882-7.309-1.913-11.053-.6-2.424.909-2.424,3.535-2.323,5.758,0,.606-.707,1.414-.4,2.121.606,2.02,1.111,4.04,3.232,5.05.3.2,0,.606.2.909-.1,0-.3.1-.3.2a6.751,6.751,0,0,1,.073,1.7l6.446,6.443a15.007,15.007,0,0,0,12.534-13.179Z" transform="translate(-122.938 -112.528)" fill="#512d84"/>
  <g id="Group_2" data-name="Group 2" transform="translate(6.693 6.414)">
    <path id="Path_6" data-name="Path 6" d="M130.476,113.6l0-.02a5.728,5.728,0,0,0-3.867-3.721l-.019,0a21.49,21.49,0,0,0-8.089,0l-.019,0a5.73,5.73,0,0,0-3.867,3.721l0,.02a15.833,15.833,0,0,0,0,6.82l0,.02a5.777,5.777,0,0,0,3.654,3.666v1.809a.727.727,0,0,0,1.251.5l1.833-1.9c.4.022.8.035,1.193.035a21.565,21.565,0,0,0,4.044-.384l.019,0a5.728,5.728,0,0,0,3.867-3.721l0-.02A15.834,15.834,0,0,0,130.476,113.6Zm-1.45,6.492a4.332,4.332,0,0,1-2.73,2.614,20.029,20.029,0,0,1-4.3.348.1.1,0,0,0-.076.031l-1.338,1.374-1.423,1.461a.167.167,0,0,1-.287-.115v-3a.1.1,0,0,0-.084-.1h0a4.333,4.333,0,0,1-2.73-2.614,14.367,14.367,0,0,1,0-6.164,4.333,4.333,0,0,1,2.73-2.614,20.014,20.014,0,0,1,7.511,0,4.331,4.331,0,0,1,2.73,2.614A14.352,14.352,0,0,1,129.026,120.089Z" transform="translate(-114.234 -109.468)" fill="#fff"/>
    <path id="Path_7" data-name="Path 7" d="M188.886,181.72c-.168-.051-.327-.085-.476-.147a10.8,10.8,0,0,1-4.072-2.721,10.565,10.565,0,0,1-1.557-2.383c-.2-.406-.368-.828-.54-1.248a1.083,1.083,0,0,1,.317-1.066,2.5,2.5,0,0,1,.839-.63.538.538,0,0,1,.673.16,8.679,8.679,0,0,1,1.042,1.458.694.694,0,0,1-.195.94c-.079.054-.151.116-.224.177a.734.734,0,0,0-.169.178.489.489,0,0,0-.033.429,3.883,3.883,0,0,0,2.181,2.415,1.111,1.111,0,0,0,.559.136c.342-.04.452-.415.692-.61a.652.652,0,0,1,.785-.034c.252.16.5.331.739.5a8.44,8.44,0,0,1,.7.53.552.552,0,0,1,.165.683,2.31,2.31,0,0,1-.993,1.094,2.4,2.4,0,0,1-.429.137C188.719,181.669,189.032,181.675,188.886,181.72Z" transform="translate(-178.208 -169.717)" fill="#fff"/>
    <path id="Path_8" data-name="Path 8" d="M250.25,165.413a4.085,4.085,0,0,1,4.015,3.378c.06.339.082.685.109,1.029a.241.241,0,0,1-.227.284c-.161,0-.234-.133-.244-.277-.021-.286-.035-.573-.074-.857a3.592,3.592,0,0,0-2.893-3c-.224-.04-.454-.051-.681-.074-.144-.015-.332-.024-.364-.2a.245.245,0,0,1,.242-.277c.039,0,.078,0,.116,0C252.261,165.47,250.211,165.413,250.25,165.413Z" transform="translate(-241.939 -162.134)" fill="#fff"/>
    <path id="Path_9" data-name="Path 9" d="M259.236,186.639a.922.922,0,0,1-.02.14.228.228,0,0,1-.43.023.606.606,0,0,1-.024-.194,2.435,2.435,0,0,0-.308-1.222,2.274,2.274,0,0,0-.953-.895,2.74,2.74,0,0,0-.76-.233c-.115-.019-.23-.03-.345-.046a.219.219,0,0,1-.207-.246.216.216,0,0,1,.241-.214,3.161,3.161,0,0,1,1.317.343,2.664,2.664,0,0,1,1.45,2.07c.006.042.016.084.02.126.008.1.013.209.021.347C259.233,186.664,259.228,186.5,259.236,186.639Z" transform="translate(-247.87 -179.4)" fill="#fff"/>
    <path id="Path_10" data-name="Path 10" d="M262.893,204.284a.248.248,0,0,1-.276-.244,2.517,2.517,0,0,0-.047-.321.9.9,0,0,0-.333-.523.873.873,0,0,0-.272-.131c-.123-.036-.252-.026-.375-.056a.23.23,0,0,1-.187-.266.241.241,0,0,1,.255-.194,1.382,1.382,0,0,1,1.416,1.377.638.638,0,0,1,0,.2.2.2,0,0,1-.18.164C262.725,204.287,262.97,204.279,262.893,204.284Z" transform="translate(-252.778 -197.093)" fill="#fff"/>
  </g>
  <path id="Path_11" data-name="Path 11" d="M155.528,138.268l0-.02a5.334,5.334,0,0,0-1.726-2.573l-1.128,1a4.057,4.057,0,0,1,1.409,1.921,14.351,14.351,0,0,1,0,6.164,4.332,4.332,0,0,1-2.73,2.614,20.029,20.029,0,0,1-4.3.348.1.1,0,0,0-.076.031l-1.338,1.374-1.423,1.461a.167.167,0,0,1-.287-.115v-3a.1.1,0,0,0-.084-.1h0a4.055,4.055,0,0,1-1.877-1.208l-1.115.988a5.657,5.657,0,0,0,2.471,1.62v1.809a.727.727,0,0,0,1.251.5l1.833-1.9c.4.022.8.035,1.193.035a21.565,21.565,0,0,0,4.044-.384l.019,0a5.728,5.728,0,0,0,3.867-3.721l0-.02A15.834,15.834,0,0,0,155.528,138.268Z" transform="translate(-132.592 -127.725)" fill="#d1d1d1"/>
  <path id="Path_12" data-name="Path 12" d="M295.654,313.749c.146-.045-.168-.051,0,0Z" transform="translate(-278.283 -295.332)" fill="#fff"/>
  <path id="Path_13" data-name="Path 13" d="M223.318,252.939a8.488,8.488,0,0,0-.7-.53c-.243-.173-.487-.344-.739-.5a.652.652,0,0,0-.785.034c-.239.2-.35.571-.692.61a1.111,1.111,0,0,1-.559-.136,3.616,3.616,0,0,1-1.588-1.263l-.83.735c.028.033.055.066.084.1a10.806,10.806,0,0,0,4.072,2.721c.148.062.308.1.476.147-.168-.051.146-.045,0,0a2.4,2.4,0,0,0,.429-.137,2.31,2.31,0,0,0,.993-1.094A.552.552,0,0,0,223.318,252.939Z" transform="translate(-204.69 -236.435)" fill="#d1d1d1"/>
  <g id="Group_3" data-name="Group 3" transform="translate(15.004 9.693)">
    <path id="Path_14" data-name="Path 14" d="M256.069,165.427h0Z" transform="translate(-256.064 -165.427)" fill="#fff"/>
    <path id="Path_15" data-name="Path 15" d="M256.072,165.426h.005C256.189,165.43,258,165.48,256.072,165.426Z" transform="translate(-256.072 -165.426)" fill="#fff"/>
  </g>
  <g id="Group_4" data-name="Group 4" transform="translate(16.816 10.889)">
    <path id="Path_16" data-name="Path 16" d="M299.6,185.837l-.354.314A3.55,3.55,0,0,1,300.3,188.2c.039.284.054.571.075.857.01.145.083.279.244.277a.241.241,0,0,0,.227-.284c-.027-.344-.048-.69-.109-1.029A4.036,4.036,0,0,0,299.6,185.837Z" transform="translate(-298.53 -185.837)" fill="#d1d1d1"/>
    <path id="Path_17" data-name="Path 17" d="M288.194,198.369a2.684,2.684,0,0,0-.85-1.654l-.353.313a2.292,2.292,0,0,1,.462.562,2.435,2.435,0,0,1,.308,1.222.606.606,0,0,0,.024.194.228.228,0,0,0,.43-.023.924.924,0,0,0,.02-.14c0,.025-.008-.138,0,0-.008-.138-.013-.243-.021-.347C288.21,198.453,288.2,198.411,288.194,198.369Z" transform="translate(-286.991 -196.078)" fill="#d1d1d1"/>
  </g>
  <g id="Group_5" data-name="Group 5" transform="translate(16.749 13.597)">
    <path id="Path_18" data-name="Path 18" d="M308.141,232.118c-.008-.138,0,.025,0,0Z" transform="translate(-306.83 -232.061)" fill="#fff"/>
    <path id="Path_19" data-name="Path 19" d="M286.527,232.159l.008,0h-.008Z" transform="translate(-286.466 -232.151)" fill="#fff"/>
    <path id="Path_20" data-name="Path 20" d="M285.9,232.168h-.021C285.844,232.168,285.807,232.17,285.9,232.168Z" transform="translate(-285.842 -232.161)" fill="#fff"/>
    <path id="Path_21" data-name="Path 21" d="M286.88,232.157l-.008,0C286.892,232.157,286.89,232.157,286.88,232.157Z" transform="translate(-286.812 -232.151)" fill="#fff"/>
  </g>
  <path id="Path_22" data-name="Path 22" d="M275.045,207.525l-.359.318c.02.012.039.025.058.038a.9.9,0,0,1,.333.523,2.552,2.552,0,0,1,.047.321.246.246,0,0,0,.254.243h.029a.2.2,0,0,0,.172-.163.637.637,0,0,0,0-.2A1.426,1.426,0,0,0,275.045,207.525Z" transform="translate(-258.591 -195.365)" fill="#d1d1d1"/>
</svg>
