<svg xmlns="http://www.w3.org/2000/svg" width="20" height="16" viewBox="0 0 20 16"><g><g><g><g><path fill="#b5b5b5" d="M10.052 3.23L2.882 9.14a.17.17 0 0 1-.007.037.171.171 0 0 0-.006.038V15.2c0 .217.08.404.237.562a.768.768 0 0 0 .561.237h4.789V11.21h3.193V16h4.788c.216 0 .403-.08.561-.237a.766.766 0 0 0 .237-.562V9.216a.176.176 0 0 0-.012-.075z"/></g><g><path fill="#b5b5b5" d="M19.966 7.794l-2.73-2.27V.438a.388.388 0 0 0-.113-.287.387.387 0 0 0-.287-.112h-2.394a.389.389 0 0 0-.287.112.389.389 0 0 0-.112.287v2.431L11 .324A1.455 1.455 0 0 0 10.052 0c-.365 0-.681.108-.947.324L.138 7.794a.362.362 0 0 0-.137.268c-.009.112.02.21.087.293l.773.923c.067.075.154.12.262.138.1.008.2-.021.3-.088l8.63-7.195 8.629 7.195a.384.384 0 0 0 .262.087h.037a.426.426 0 0 0 .262-.137l.773-.923a.404.404 0 0 0 .087-.293.363.363 0 0 0-.137-.268z"/></g></g></g></g></svg>