<svg width="12" height="12" viewBox="0 0 12 12" fill="none" xmlns="http://www.w3.org/2000/svg">
<path d="M3.24454 4.65616L0.835236 7.06491C-0.278412 8.17838 -0.278412 9.99002 0.835236 11.1035L0.895386 11.1636C1.43491 11.7029 2.15213 12 2.91513 12C3.67813 12 4.39545 11.7029 4.93488 11.1636L7.25308 8.84598C7.08325 8.87051 6.91058 8.88315 6.7359 8.88315C6.25534 8.88315 5.78943 8.78848 5.35931 8.60812L3.89914 10.0679C3.63629 10.3307 3.28683 10.4754 2.91513 10.4754C2.54352 10.4754 2.19406 10.3308 1.93121 10.068C1.66873 9.80563 1.52417 9.45627 1.52417 9.0842C1.52417 8.71222 1.66873 8.36276 1.93112 8.10037L4.28027 5.75186C4.54312 5.48901 4.89258 5.34436 5.26428 5.34436C5.62372 5.34436 5.9621 5.47995 6.22174 5.7265C6.23117 5.73419 6.24023 5.74234 6.24902 5.75113C6.37912 5.88113 6.55197 5.95273 6.7359 5.95273C6.91974 5.95273 7.09268 5.88113 7.22269 5.75113L7.74866 5.22534C7.63412 5.04169 7.4989 4.87094 7.34418 4.71631L7.28412 4.65625C6.7446 4.11682 6.02728 3.81982 5.26437 3.81982C4.50137 3.81982 3.78406 4.11682 3.24454 4.65616Z" fill="black"/>
<path d="M11.1648 4.93506C11.7034 4.39673 11.9999 3.6796 11.9999 2.91577C11.9999 2.15204 11.7033 1.43491 11.1648 0.896484L11.1047 0.836426C10.5652 0.297089 9.8479 0 9.0849 0C8.32199 0 7.60468 0.297089 7.06516 0.836426L4.74695 3.15399C4.91678 3.12946 5.08954 3.11682 5.26422 3.11682C5.74469 3.11682 6.2106 3.21158 6.64072 3.39185L8.10089 1.93204C8.36374 1.66928 8.7132 1.52454 9.0849 1.52454C9.45661 1.52454 9.80606 1.66919 10.0689 1.93204C10.3314 2.19443 10.4759 2.54379 10.4759 2.91577C10.4759 3.28784 10.3314 3.63721 10.0689 3.89951L7.71976 6.24811C7.45691 6.51096 7.10745 6.65561 6.73575 6.65561C6.3764 6.65561 6.03803 6.52002 5.77838 6.27347C5.76895 6.26587 5.7598 6.25763 5.75101 6.24884C5.621 6.11884 5.44806 6.04724 5.26422 6.04724C5.08029 6.04724 4.90744 6.11884 4.77744 6.24884L4.25146 6.77472C4.36591 6.95828 4.50113 7.12894 4.65585 7.28366L4.716 7.34381C5.25552 7.88315 5.97275 8.18015 6.73575 8.18015C7.49875 8.18015 8.21607 7.88315 8.7555 7.34381L11.1648 4.93506Z" fill="black"/>
</svg>
