<svg data-name="Layer 1" xmlns="http://www.w3.org/2000/svg" width="22.49" height="22.56" viewBox="0 0 22.49 22.56"><title>phone_2</title><g data-name="Слой 2"><g data-name="Слой 2-2" fill="#2acb1e"><path d="M18.29 22.56c-2.88 0-6.92-2.44-11.38-6.86S.22 7.57 0 4.41C-.1 2.96 2.75.85 3.29.47A1.73 1.73 0 0 1 4.47.02a1.88 1.88 0 0 1 1.24.5l.11.11c.18.18.6.85 1.53 2.26.6.91 1.35 2 1.48 2.2l.1.17a2 2 0 0 1-.21 2L7.68 9.02a20.74 20.74 0 0 0 2.77 3.16 21.31 21.31 0 0 0 3.13 2.69l1.84-1.05a2 2 0 0 1 1.88-.17c.52.29 4.24 2.77 4.65 3.13a1.89 1.89 0 0 1 .14 2.51c-.38.51-2.43 3.27-3.8 3.27zM4.48 1.5a.25.25 0 0 0-.17.07l-.14.11A9.8 9.8 0 0 0 1.5 4.3c.24 3.48 3.65 7.54 6.5 10.34 5.82 5.79 9.14 6.38 10.29 6.38a10.22 10.22 0 0 0 2.57-2.64l.06-.08a.37.37 0 0 0 0-.49c-.28-.24-3.79-2.59-4.27-2.87a.5.5 0 0 0-.4.09l-2.72 1.56-.39-.26a22.66 22.66 0 0 1-3.74-3.09 22.1 22.1 0 0 1-3.23-3.77l-.27-.39 1.57-2.69a.56.56 0 0 0 .11-.48c-.22-.3-.72-1.06-1.47-2.19-.59-.88-1.32-2-1.44-2.13a.27.27 0 0 0-.19-.09zm17.91 8.9h-1.5a8.45 8.45 0 0 0-8.44-8.46V.44a9.95 9.95 0 0 1 9.94 9.96z"/><path d="M18 10.02a5.58 5.58 0 0 0-5.55-5.56V3.02a7.09 7.09 0 0 1 7 7.06H18z"/><path d="M17.06 10.02h-1.5a3.25 3.25 0 0 0-3.25-3.25V5.3a4.76 4.76 0 0 1 4.75 4.72z"/></g></g></svg>