<svg width="92" height="91" viewBox="0 0 92 91" fill="none" xmlns="http://www.w3.org/2000/svg">
<circle cx="45.5032" cy="45.8736" r="21.5" transform="rotate(-179.858 45.5032 45.8736)" fill="#E8E7E7" fill-opacity="0.3"/>
<circle cx="25.923" cy="85.9876" r="5" transform="rotate(-179.858 25.923 85.9876)" fill="#E8E7E7"/>
<circle cx="76.5824" cy="14.4914" r="3.5" transform="rotate(-179.858 76.5824 14.4914)" fill="#E8E7E7"/>
<circle cx="45.9821" cy="45.8888" r="44.5" transform="rotate(-179.858 45.9821 45.8888)" stroke="#E8E7E7" stroke-opacity="0.3"/>
<path d="M39.7217 48.4824H38.0518V53H34.9668V40.2031H40.0029C41.5205 40.2031 42.707 40.54 43.5625 41.2139C44.418 41.8877 44.8457 42.8398 44.8457 44.0703C44.8457 44.9609 44.6641 45.6992 44.3008 46.2852C43.9434 46.8711 43.3809 47.3457 42.6133 47.709L45.2852 52.8682V53H41.9805L39.7217 48.4824ZM38.0518 46.1006H40.0029C40.5889 46.1006 41.0283 45.9482 41.3213 45.6436C41.6201 45.333 41.7695 44.9023 41.7695 44.3516C41.7695 43.8008 41.6201 43.3701 41.3213 43.0596C41.0225 42.7432 40.583 42.585 40.0029 42.585H38.0518V46.1006ZM53.3096 49.5986C53.3096 49.1475 53.1484 48.7959 52.8262 48.5439C52.5098 48.292 51.9502 48.0312 51.1475 47.7617C50.3447 47.4922 49.6885 47.2314 49.1787 46.9795C47.5205 46.165 46.6914 45.0459 46.6914 43.6221C46.6914 42.9131 46.8965 42.2891 47.3066 41.75C47.7227 41.2051 48.3086 40.7832 49.0645 40.4844C49.8203 40.1797 50.6699 40.0273 51.6133 40.0273C52.5332 40.0273 53.3564 40.1914 54.083 40.5195C54.8154 40.8477 55.3838 41.3164 55.7881 41.9258C56.1924 42.5293 56.3945 43.2207 56.3945 44H53.3184C53.3184 43.4785 53.1572 43.0742 52.835 42.7871C52.5186 42.5 52.0879 42.3564 51.543 42.3564C50.9922 42.3564 50.5557 42.4795 50.2334 42.7256C49.917 42.9658 49.7588 43.2734 49.7588 43.6484C49.7588 43.9766 49.9346 44.2754 50.2861 44.5449C50.6377 44.8086 51.2559 45.084 52.1406 45.3711C53.0254 45.6523 53.752 45.957 54.3203 46.2852C55.7031 47.082 56.3945 48.1807 56.3945 49.5811C56.3945 50.7002 55.9727 51.5791 55.1289 52.2178C54.2852 52.8564 53.1279 53.1758 51.6572 53.1758C50.6201 53.1758 49.6797 52.9912 48.8359 52.6221C47.998 52.2471 47.3652 51.7373 46.9375 51.0928C46.5156 50.4424 46.3047 49.6953 46.3047 48.8516H49.3984C49.3984 49.5371 49.5742 50.0439 49.9258 50.3721C50.2832 50.6943 50.8604 50.8555 51.6572 50.8555C52.167 50.8555 52.5684 50.7471 52.8613 50.5303C53.1602 50.3076 53.3096 49.9971 53.3096 49.5986Z" fill="white"/>
</svg>
