<svg width="92" height="91" viewBox="0 0 92 91" fill="none" xmlns="http://www.w3.org/2000/svg">
<circle cx="45.5032" cy="45.8736" r="21.5" transform="rotate(-179.858 45.5032 45.8736)" fill="#FFDB4D"/>
<circle cx="25.9229" cy="85.9876" r="5" transform="rotate(-179.858 25.9229 85.9876)" fill="#FFDB4D"/>
<circle cx="76.5822" cy="14.4914" r="3.5" transform="rotate(-179.858 76.5822 14.4914)" fill="#FFDB4D"/>
<circle cx="45.9822" cy="45.8888" r="44.5" transform="rotate(-179.858 45.9822 45.8888)" stroke="#FFDB4D" stroke-opacity="0.6"/>
<path d="M39.7216 48.4824H38.0517V53H34.9668V40.2031H40.0029C41.5205 40.2031 42.707 40.54 43.5625 41.2139C44.4179 41.8877 44.8457 42.8398 44.8457 44.0703C44.8457 44.9609 44.664 45.6992 44.3008 46.2852C43.9433 46.8711 43.3808 47.3457 42.6133 47.709L45.2851 52.8682V53H41.9804L39.7216 48.4824ZM38.0517 46.1006H40.0029C40.5888 46.1006 41.0283 45.9482 41.3213 45.6436C41.6201 45.333 41.7695 44.9023 41.7695 44.3516C41.7695 43.8008 41.6201 43.3701 41.3213 43.0596C41.0224 42.7432 40.583 42.585 40.0029 42.585H38.0517V46.1006ZM53.3095 49.5986C53.3095 49.1475 53.1484 48.7959 52.8261 48.5439C52.5097 48.292 51.9502 48.0312 51.1474 47.7617C50.3447 47.4922 49.6884 47.2314 49.1787 46.9795C47.5205 46.165 46.6914 45.0459 46.6914 43.6221C46.6914 42.9131 46.8965 42.2891 47.3066 41.75C47.7226 41.2051 48.3086 40.7832 49.0644 40.4844C49.8203 40.1797 50.6699 40.0273 51.6133 40.0273C52.5332 40.0273 53.3564 40.1914 54.083 40.5195C54.8154 40.8477 55.3838 41.3164 55.7881 41.9258C56.1924 42.5293 56.3945 43.2207 56.3945 44H53.3183C53.3183 43.4785 53.1572 43.0742 52.8349 42.7871C52.5185 42.5 52.0879 42.3564 51.5429 42.3564C50.9922 42.3564 50.5556 42.4795 50.2334 42.7256C49.917 42.9658 49.7588 43.2734 49.7588 43.6484C49.7588 43.9766 49.9345 44.2754 50.2861 44.5449C50.6377 44.8086 51.2558 45.084 52.1406 45.3711C53.0254 45.6523 53.7519 45.957 54.3203 46.2852C55.7031 47.082 56.3945 48.1807 56.3945 49.5811C56.3945 50.7002 55.9726 51.5791 55.1289 52.2178C54.2851 52.8564 53.1279 53.1758 51.6572 53.1758C50.6201 53.1758 49.6797 52.9912 48.8359 52.6221C47.998 52.2471 47.3652 51.7373 46.9375 51.0928C46.5156 50.4424 46.3047 49.6953 46.3047 48.8516H49.3984C49.3984 49.5371 49.5742 50.0439 49.9258 50.3721C50.2832 50.6943 50.8603 50.8555 51.6572 50.8555C52.167 50.8555 52.5683 50.7471 52.8613 50.5303C53.1601 50.3076 53.3095 49.9971 53.3095 49.5986Z" fill="white" fill-opacity="0.3"/>
</svg>
