<svg width="92" height="92" viewBox="0 0 92 92" fill="none" xmlns="http://www.w3.org/2000/svg">
<circle cx="45.5044" cy="46.119" r="21.5" transform="rotate(-179.858 45.5044 46.119)" fill="#D20C0C"/>
<circle cx="26.924" cy="86.9876" r="5" transform="rotate(-179.858 26.924 86.9876)" fill="#D20C0C"/>
<circle cx="77.5834" cy="15.4914" r="3.5" transform="rotate(-179.858 77.5834 15.4914)" fill="#D20C0C"/>
<circle cx="45.9831" cy="45.8888" r="44.5" transform="rotate(-179.858 45.9831 45.8888)" stroke="#D20C0C" stroke-opacity="0.3"/>
<path d="M45.3203 48.667C45.2793 49.5576 45.0391 50.3457 44.5996 51.0312C44.1602 51.7109 43.542 52.2383 42.7451 52.6133C41.9541 52.9883 41.0488 53.1758 40.0293 53.1758C38.3477 53.1758 37.0234 52.6279 36.0566 51.5322C35.0898 50.4365 34.6064 48.8896 34.6064 46.8916V46.2588C34.6064 45.0049 34.8232 43.9092 35.2568 42.9717C35.6963 42.0283 36.3262 41.3018 37.1465 40.792C37.9668 40.2764 38.916 40.0186 39.9941 40.0186C41.5469 40.0186 42.7949 40.4287 43.7383 41.249C44.6816 42.0635 45.2178 43.1885 45.3467 44.624H42.2705C42.2471 43.8447 42.0508 43.2852 41.6816 42.9453C41.3125 42.6055 40.75 42.4355 39.9941 42.4355C39.2266 42.4355 38.6641 42.7227 38.3066 43.2969C37.9492 43.8711 37.7617 44.7881 37.7441 46.0479V46.9531C37.7441 48.3184 37.9141 49.2939 38.2539 49.8799C38.5996 50.4658 39.1914 50.7588 40.0293 50.7588C40.7383 50.7588 41.2803 50.5918 41.6553 50.2578C42.0303 49.9238 42.2295 49.3936 42.2529 48.667H45.3203ZM57.6162 46.8652C57.6162 48.1133 57.3848 49.2178 56.9219 50.1787C56.459 51.1396 55.7998 51.8809 54.9443 52.4023C54.0947 52.918 53.125 53.1758 52.0352 53.1758C50.9453 53.1758 49.9785 52.9268 49.1348 52.4287C48.291 51.9248 47.6318 51.207 47.1572 50.2754C46.6885 49.3438 46.4424 48.2744 46.4189 47.0674V46.3467C46.4189 45.0928 46.6475 43.9883 47.1045 43.0332C47.5674 42.0723 48.2266 41.3311 49.082 40.8096C49.9434 40.2881 50.9219 40.0273 52.0176 40.0273C53.1016 40.0273 54.0684 40.2852 54.918 40.8008C55.7676 41.3164 56.4268 42.0518 56.8955 43.0068C57.3701 43.9561 57.6104 45.0459 57.6162 46.2764V46.8652ZM54.4785 46.3291C54.4785 45.0576 54.2646 44.0938 53.8369 43.4375C53.415 42.7754 52.8086 42.4443 52.0176 42.4443C50.4707 42.4443 49.6533 43.6045 49.5654 45.9248L49.5566 46.8652C49.5566 48.1191 49.7646 49.083 50.1807 49.7568C50.5967 50.4307 51.2148 50.7676 52.0352 50.7676C52.8145 50.7676 53.415 50.4365 53.8369 49.7744C54.2588 49.1123 54.4727 48.1602 54.4785 46.918V46.3291Z" fill="white" fill-opacity="0.2"/>
</svg>
