<svg xmlns="http://www.w3.org/2000/svg" width="73" height="65" viewBox="0 0 73 65"><g><g><path fill="#185cfb" d="M5.55 35.235c-.126 0-.252 0-.504.126a6.135 6.135 0 0 1-1.387-.504c.378-.252 1.008-.126 1.891.378zM69.475 1.318c-3.278-1.765-6.934 1.64-9.078 3.657-4.917 4.791-9.078 10.339-13.743 15.382-5.17 5.548-9.96 11.096-15.256 16.517-3.026 3.027-6.305 6.305-8.322 10.087-4.539-4.413-8.448-9.204-13.491-13.113-3.657-2.773-9.709-4.79-9.583 1.892.253 8.7 7.944 18.03 13.618 23.956 2.395 2.521 5.547 5.17 9.204 5.295 4.413.253 8.952-5.043 11.6-7.943 4.665-5.043 8.448-10.717 12.734-15.887 5.548-6.808 11.222-13.49 16.643-20.426 3.405-4.286 14.122-14.878 5.674-19.417z"/></g></g></svg>