<svg xmlns="http://www.w3.org/2000/svg" width="23" height="24" viewBox="0 0 23 24"><g><g><g><g><g><path fill="#185cfb" d="M17.43 11.395a.78.78 0 0 0-.711-.458h-3.125V.781A.782.782 0 0 0 12.813 0H9.688a.782.782 0 0 0-.782.781v10.156H5.781a.782.782 0 0 0-.587 1.296l5.469 6.25a.779.779 0 0 0 1.175 0l5.468-6.25a.779.779 0 0 0 .124-.838z"/></g></g></g><g><g><g><path fill="#185cfb" d="M19.5 16.188v4.687H3v-4.687H0v6.25C0 23.302.672 24 1.5 24H21c.83 0 1.5-.698 1.5-1.562v-6.25z"/></g></g></g></g></g></svg>