<svg xmlns="http://www.w3.org/2000/svg" width="28" height="25" viewBox="0 0 28 25"><g><g><g><g><path fill="#185cfb" d="M27.739 1.175H11.455a.066.066 0 0 0-.065.064v1.525c0 .033.027.065.065.065H27.74a.066.066 0 0 0 .064-.065V1.24a.062.062 0 0 0-.064-.064z"/></g><g><path fill="#185cfb" d="M1.81 13.13a2.042 2.042 0 1 1 4.085 0 2.042 2.042 0 0 1-4.085 0z"/></g><g><path fill="#185cfb" d="M1.8 22.79a2.053 2.053 0 1 1 4.106 0 2.053 2.053 0 0 1-4.106 0z"/></g><g><path fill="#185cfb" d="M10.672 5.858h7.694a.066.066 0 0 0 .065-.065V4.27a.066.066 0 0 0-.065-.065h-7.694a.066.066 0 0 0-.065.065v1.524c.005.038.032.065.065.065z"/></g><g><path fill="#185cfb" d="M27.739 10.826H11.455a.065.065 0 0 0-.065.065v1.525c0 .032.027.065.065.065H27.74a.066.066 0 0 0 .064-.065V10.89a.062.062 0 0 0-.064-.065z"/></g><g><path fill="#185cfb" d="M10.672 15.429h7.694a.066.066 0 0 0 .065-.065V13.84a.066.066 0 0 0-.065-.064h-7.694a.066.066 0 0 0-.065.064v1.525c.005.033.032.065.065.065z"/></g><g><path fill="#185cfb" d="M27.739 20.582H11.455a.066.066 0 0 0-.065.064v1.525c0 .032.027.065.065.065H27.74a.065.065 0 0 0 .064-.065v-1.525a.062.062 0 0 0-.064-.064z"/></g><g><path fill="#185cfb" d="M18.366 23.346h-7.694a.066.066 0 0 0-.065.064v1.525c0 .033.027.065.065.065h7.694a.066.066 0 0 0 .065-.065V23.41a.062.062 0 0 0-.065-.064z"/></g><g><path fill="#185cfb" d="M2.877 3.346L1.471 1.93 0 3.395l1.412 1.411 1.46 1.471 1.466-1.46 3.367-3.346L6.245 0z"/></g></g></g></g></svg>