<svg xmlns="http://www.w3.org/2000/svg" width="27" height="27" viewBox="0 0 27 27"><g><g><g><path fill="#7aa5da" d="M0 13.5C0 6.044 6.044 0 13.5 0S27 6.044 27 13.5 20.956 27 13.5 27 0 20.956 0 13.5z"/></g><g><path fill="#5786b5" d="M26.996 13.188l-5.993-5.983-9.761 11.898 7.028 7.029C23.372 24.204 27 19.276 27 13.5c0-.104-.002-.209-.004-.312z"/></g><g><path fill="#fff" d="M11.898 15.407a.35.35 0 0 0-.117.225l-.236 3.538c-.01.074-.11.084-.132.013l-1.057-4.643a.352.352 0 0 1 .15-.404l7.754-4.809c.178-.11.36.135.203.274zM6.1 12.548a.515.515 0 0 0 .041.975l3.592 1.06 1.34 4.254c.14.444.703.58 1.03.247l1.857-1.897 3.643 2.675a.76.76 0 0 0 1.194-.457L21.21 7.867a.727.727 0 0 0-.976-.826z"/></g><g><path fill="#9ec2e5" d="M18.26 9.327c.178-.11.36.135.203.274l-6.565 5.806a.35.35 0 0 0-.117.225l-.236 3.538c-.009.074-.11.084-.132.013l-1.057-4.643a.352.352 0 0 1 .15-.404z"/></g><g><path fill="#fff" d="M11.451 19.231a.606.606 0 0 1-.377-.394l-1.34-4.253-3.592-1.061a.515.515 0 0 1-.041-.975l14.134-5.507a.725.725 0 0 1 .763.15l-9.59 7.828v.343l-.052-.038.053 2.158v1.73a.34.34 0 0 0 .042.017v.002z"/></g><g><g><path fill="#d1d1d1" d="M21.227 7.674a.79.79 0 0 1-.016.193l-2.413 11.538a.76.76 0 0 1-1.194.457l-3.643-2.675-2.552-1.825v-.343l9.589-7.828a.758.758 0 0 1 .134.168l.018.032.015.033.015.034.011.033a.726.726 0 0 1 .036.183z"/></g><g><path fill="#d1d1d1" d="M13.96 17.187l-1.857 1.897a.733.733 0 0 1-.098.082.641.641 0 0 1-.108.058c-.02.007-.037.014-.056.019a.616.616 0 0 1-.302.013l-.008-.002a1.449 1.449 0 0 1-.08-.025l-.042-1.747v-2.12z"/></g></g><g><g><path fill="#dadde0" d="M12.055 19.128a.656.656 0 0 1-.05.039v-.001a.63.63 0 0 0 .05-.038z"/></g><g><path fill="#dadde0" d="M12.005 19.166l.001-.001z"/></g><g><path fill="#dadde0" d="M11.897 19.224a.64.64 0 0 0 .107-.057"/></g><g><path fill="#dadde0" d="M11.6 19.265z"/></g></g><g><g><path fill="#fff" d="M11.665 19.27c-.018 0-.036-.002-.054-.004"/></g><g><path fill="#fff" d="M11.6 19.265a.356.356 0 0 1 0 0z"/></g></g><g><g><path fill="#dadde0" d="M11.6 19.265z"/></g><g><path fill="#dadde0" d="M11.47 19.237l.06.017-.024-.006a.032.032 0 0 1-.01-.003.138.138 0 0 1-.025-.008z"/></g></g><g><g><path fill="#fff" d="M11.506 19.248l.025.006"/></g><g><path fill="#fff" d="M11.47 19.237a.238.238 0 0 1-.015-.005l.016.005z"/></g></g><g><path fill="#dadde0" d="M11.47 19.237l-.015-.005h-.004v-.003c.007.004.013.006.02.008z"/></g><g><path fill="#d1d1d1" d="M11.409 17.482l.042 1.747a.346.346 0 0 1-.042-.016z"/></g><g><path fill="#dadde0" d="M11.409 15.362v2.12l-.053-2.158z"/></g><g><path fill="#adbcc9" d="M18.463 9.601l-6.565 5.806a.35.35 0 0 0-.117.225l-.235 3.538c-.01.074-.111.084-.133.013l-1.057-4.643a.352.352 0 0 1 .15-.404l7.754-4.809c.178-.11.36.135.203.274z"/></g></g></g></svg>