<svg xmlns="http://www.w3.org/2000/svg" width="24" height="24" viewBox="0 0 24 24"><g><g><path fill="#6f3faa" d="M0 12.143C0 5.594 5.309.285 11.857.285c6.549 0 11.858 5.31 11.858 11.858C23.715 18.69 18.405 24 11.857 24 5.31 24 0 18.691 0 12.143z"/></g><g><path fill="#512d84" d="M17.001 6.79c-2.886-.697-5.777-1.512-8.737-.476-1.916.718-1.916 2.795-1.836 4.551 0 .48-.56 1.118-.32 1.677.48 1.597.879 3.194 2.555 3.992.24.16 0 .48.16.719-.08 0-.24.08-.24.16 0 .382.172.968.058 1.345l5.095 5.093c5.238-.834 9.332-5.098 9.908-10.418z"/></g><g><g><path fill="#fff" d="M16.984 13.751c-.212.836-1.296 1.874-2.158 2.066a15.832 15.832 0 0 1-3.401.275.08.08 0 0 0-.06.024l-1.058 1.086-1.125 1.155a.132.132 0 0 1-.227-.091v-2.369a.082.082 0 0 0-.066-.08c-.862-.192-1.946-1.23-2.158-2.066a11.357 11.357 0 0 1 0-4.873c.212-.835 1.296-1.874 2.157-2.066a15.821 15.821 0 0 1 5.938 0c.862.192 1.946 1.23 2.158 2.066a11.344 11.344 0 0 1 0 4.873zm1.146-5.132l-.004-.016c-.317-1.28-1.745-2.655-3.057-2.94l-.015-.004a16.988 16.988 0 0 0-6.394 0l-.015.003c-1.311.286-2.74 1.66-3.057 2.941l-.003.016a12.516 12.516 0 0 0 0 5.391l.003.016c.304 1.226 1.626 2.537 2.889 2.898v1.43c0 .517.63.771.989.398l1.449-1.506a16.907 16.907 0 0 0 4.14-.276l.014-.003c1.312-.286 2.74-1.66 3.057-2.941l.004-.016a12.516 12.516 0 0 0 0-5.39z"/></g><g><path fill="#fff" d="M13.732 14.844c-.133-.04-.259-.067-.376-.116-1.215-.504-2.333-1.154-3.219-2.15-.504-.568-.898-1.208-1.231-1.885-.158-.321-.291-.655-.427-.986-.124-.303.059-.615.25-.843a1.98 1.98 0 0 1 .663-.498c.196-.094.39-.04.533.126.31.36.593.737.823 1.153.142.256.103.569-.153.743-.063.042-.12.092-.178.14a.58.58 0 0 0-.133.14.386.386 0 0 0-.026.34c.316.869.849 1.545 1.724 1.909.14.058.28.126.441.107.27-.032.358-.328.547-.483a.515.515 0 0 1 .62-.027c.2.126.393.262.585.399.189.134.376.265.55.418.167.148.225.34.13.54-.171.367-.422.671-.784.865-.102.055-.224.073-.34.108-.132-.04.116-.035 0 0z"/></g><g><path fill="#fff" d="M11.86 7.948c1.59.044 2.895 1.099 3.175 2.67.047.268.064.541.085.813.01.114-.055.223-.179.224-.127.002-.184-.105-.193-.219-.016-.226-.027-.453-.058-.677a2.84 2.84 0 0 0-2.287-2.374c-.178-.031-.359-.04-.539-.059-.113-.012-.262-.018-.287-.16-.021-.118.079-.212.191-.218.031-.002.062 0 .093 0 1.589.044-.031 0 0 0z"/></g><g><path fill="#fff" d="M14.276 11.078c-.003.02-.004.067-.016.11-.042.16-.284.18-.34.02a.479.479 0 0 1-.019-.154c0-.337-.074-.673-.243-.966a1.798 1.798 0 0 0-.754-.707 2.167 2.167 0 0 0-.6-.184c-.091-.015-.183-.024-.274-.037-.11-.016-.169-.086-.164-.194a.17.17 0 0 1 .19-.17c.365.021.718.1 1.042.272.66.35 1.036.9 1.146 1.636.005.034.013.067.015.1l.017.274c-.003.02-.007-.109 0 0z"/></g><g><path fill="#fff" d="M13.287 11.04c-.133.002-.204-.071-.218-.193-.01-.085-.017-.171-.037-.254a.714.714 0 0 0-.263-.414.69.69 0 0 0-.215-.103c-.098-.029-.2-.02-.296-.045-.106-.025-.164-.111-.148-.21a.19.19 0 0 1 .202-.154c.616.045 1.056.363 1.119 1.089.004.05.01.105-.002.154-.02.084-.081.126-.142.13-.133.002.06-.004 0 0z"/></g></g><g><path fill="#d1d1d1" d="M18.13 8.62l-.004-.017c-.178-.718-.705-1.465-1.364-2.033l-.892.79c.53.423.984 1.008 1.114 1.518a11.344 11.344 0 0 1 0 4.873c-.212.836-1.296 1.874-2.158 2.066a15.834 15.834 0 0 1-3.401.275.08.08 0 0 0-.06.024l-1.058 1.086-1.125 1.155a.132.132 0 0 1-.227-.091v-2.369a.082.082 0 0 0-.066-.08c-.49-.109-1.052-.491-1.484-.955l-.881.781c.55.6 1.26 1.083 1.953 1.281v1.43c0 .517.63.771.989.398l1.448-1.506a16.895 16.895 0 0 0 4.14-.276l.015-.003c1.312-.286 2.74-1.66 3.057-2.94l.004-.017a12.517 12.517 0 0 0 0-5.391z"/></g><g><path fill="#d1d1d1" d="M14.725 13.331c-.174-.153-.361-.284-.55-.418a12.892 12.892 0 0 0-.584-.399.515.515 0 0 0-.62.027c-.19.155-.277.451-.547.483-.162.019-.302-.05-.442-.107a2.858 2.858 0 0 1-1.255-.999l-.656.581c.022.026.043.053.066.078.886.997 2.004 1.647 3.219 2.151.117.049.243.076.376.116-.133-.04.115-.035 0 0 .115-.035.237-.053.34-.108.36-.194.612-.499.784-.864.094-.2.037-.393-.13-.54z"/></g><g><g><path fill="#fff" d="M11.865 7.948h-.004"/></g><g><path fill="#fff" d="M11.86 7.948h.005"/></g></g><g><g><path fill="#d1d1d1" d="M14.14 8.893l-.28.248c.44.427.743.994.83 1.617.03.225.042.452.058.678.009.114.066.22.193.22.124-.002.188-.11.18-.225-.022-.272-.039-.546-.086-.813a3.19 3.19 0 0 0-.895-1.725z"/></g><g><path fill="#d1d1d1" d="M14.244 10.704c-.08-.536-.303-.974-.672-1.307l-.28.247c.145.128.27.278.366.444.17.293.243.63.243.966a.48.48 0 0 0 .02.153c.055.161.297.141.339-.018.012-.044.013-.09.016-.11-.003.02-.007-.11 0 0-.007-.11-.01-.192-.017-.275-.002-.034-.01-.067-.015-.1z"/></g></g><g><path fill="#d1d1d1" d="M13.007 9.897l-.284.252.046.03c.137.1.223.251.263.414.02.083.028.169.038.254.013.116.079.188.2.192h.023a.158.158 0 0 0 .136-.13c.012-.048.007-.102.002-.153-.035-.406-.189-.684-.424-.859z"/></g></g></svg>