<svg xmlns="http://www.w3.org/2000/svg" width="32" height="32" viewBox="0 0 32 32"><g><g><g><path fill="#75b73b" d="M0 16C0 7.163 7.163 0 16 0s16 7.163 16 16-7.163 16-16 16S0 24.837 0 16z"/></g><g><path fill="#52891d" d="M22.515 9.49c-.928-.233-2.292-1.034-3.175-1.355-3.448-1.078-8.08-.216-9.374 3.77-.107.109-.323.109-.43.109-2.587 3.016-.863 6.68-1.078 10.02-.074 1.177-.693 2.218-1.49 3.099l6.706 6.698c.76.11 1.536.169 2.326.169 7.902 0 14.466-5.73 15.765-13.26z"/></g><g><g><path fill="#fff" d="M21.07 20.996a7.124 7.124 0 0 1-5.07 2.1 7.096 7.096 0 0 1-3.192-.748l-.644-.32-2.835.671.597-2.897-.318-.622a7.09 7.09 0 0 1-.779-3.255c0-1.915.746-3.716 2.1-5.07A7.183 7.183 0 0 1 16 8.755c1.915 0 3.716.745 5.07 2.1a7.124 7.124 0 0 1 2.1 5.07 7.183 7.183 0 0 1-2.1 5.071zM15.553 6.778c-4.877.232-8.725 4.293-8.71 9.176a9.118 9.118 0 0 0 .997 4.13l-.973 4.72a.356.356 0 0 0 .432.419l4.624-1.096a9.114 9.114 0 0 0 3.935.956c4.985.076 9.141-3.882 9.297-8.865a9.159 9.159 0 0 0-9.602-9.44z"/></g><g><path fill="#fff" d="M20.445 17.911l-1.774-.509a.662.662 0 0 0-.655.173l-.433.441a.646.646 0 0 1-.703.149c-.84-.34-2.604-1.91-3.055-2.694a.646.646 0 0 1 .051-.717l.379-.49a.661.661 0 0 0 .081-.671l-.746-1.688a.662.662 0 0 0-1.033-.237c-.495.419-1.083 1.055-1.154 1.76-.126 1.243.407 2.81 2.423 4.691 2.328 2.174 4.193 2.46 5.407 2.167.69-.167 1.24-.836 1.587-1.383a.662.662 0 0 0-.375-.992z"/></g></g><g><g><path fill="#d1d1d1" d="M22.25 9.232l-1.389 1.423c.071.066.141.131.21.2a7.124 7.124 0 0 1 2.1 5.07 7.184 7.184 0 0 1-2.1 5.071 7.124 7.124 0 0 1-5.07 2.1 7.097 7.097 0 0 1-3.192-.748l-.644-.32-2.836.671.059-.284-2.511 2.573c.055.166.231.28.42.235l4.625-1.096a9.114 9.114 0 0 0 3.935.955c4.985.077 9.141-3.881 9.297-8.864a9.135 9.135 0 0 0-2.904-6.986z"/></g><g><path fill="#d1d1d1" d="M20.445 17.911l-1.774-.509a.661.661 0 0 0-.655.173l-.433.441a.646.646 0 0 1-.703.149c-.485-.196-1.278-.803-1.949-1.432l-1.233 1.264.128.122c2.328 2.174 4.193 2.46 5.408 2.167.688-.167 1.239-.836 1.586-1.383a.662.662 0 0 0-.375-.992z"/></g></g></g></g></svg>