<svg xmlns="http://www.w3.org/2000/svg" xmlns:xlink="http://www.w3.org/1999/xlink" width="20" height="20" viewBox="0 0 20 20"><defs><path id="5pkda" d="M1493.898 2458.86a1.76 1.76 0 0 1-1.757-1.758c0-.97.788-1.758 1.757-1.758.97 0 1.758.788 1.758 1.758a1.76 1.76 0 0 1-1.758 1.757zm-5.859 9.374a5.28 5.28 0 0 1-5.273-5.273 5.28 5.28 0 0 1 5.273-5.274 5.28 5.28 0 0 1 5.274 5.274 5.28 5.28 0 0 1-5.274 5.273zm7.031-15.234h-14.14a2.933 2.933 0 0 0-2.93 2.93v14.14a2.933 2.933 0 0 0 2.93 2.93h14.14a2.933 2.933 0 0 0 2.93-2.93v-14.14a2.933 2.933 0 0 0-2.93-2.93z"/><path id="5pkdb" d="M1493.898 2456.516a.586.586 0 1 0 .001 1.172.586.586 0 0 0 0-1.172z"/><path id="5pkdc" d="M1488.04 2458.86a4.107 4.107 0 0 0-4.102 4.101 4.107 4.107 0 0 0 4.101 4.102 4.107 4.107 0 0 0 4.102-4.102 4.107 4.107 0 0 0-4.102-4.102z"/></defs><g><g transform="translate(-1478 -2453)"><g><use fill="#c8c8c8" xlink:href="#5pkda"/></g><g><use fill="#c8c8c8" xlink:href="#5pkdb"/></g><g><use fill="#c8c8c8" xlink:href="#5pkdc"/></g></g></g></svg>