<svg xmlns="http://www.w3.org/2000/svg" xmlns:xlink="http://www.w3.org/1999/xlink" width="21" height="20" viewBox="0 0 21 20"><defs><path id="hd4ba" d="M1737.633 366.938h-14.14a2.933 2.933 0 0 0-2.93 2.93v14.14a2.933 2.933 0 0 0 2.93 2.93h5.898v-7.07h-2.344v-3.516h2.344v-2.383a3.52 3.52 0 0 1 3.516-3.515h3.554v3.515h-3.554v2.383h3.554l-.585 3.516h-2.97v7.07h4.727a2.933 2.933 0 0 0 2.93-2.93v-14.14a2.933 2.933 0 0 0-2.93-2.93z"/></defs><g><g transform="translate(-1720 -367)"><use xlink:href="#hd4ba"/></g></g></svg>