<svg xmlns="http://www.w3.org/2000/svg" xmlns:xlink="http://www.w3.org/1999/xlink" width="11" height="15" viewBox="0 0 11 15"><defs><path id="9ghca" d="M1379.432 2360.166a2.736 2.736 0 0 1-2.733-2.734 2.736 2.736 0 0 1 2.733-2.733 2.736 2.736 0 0 1 2.733 2.733 2.736 2.736 0 0 1-2.733 2.734zm0-8.166a5.439 5.439 0 0 0-5.432 5.432c0 3.718 4.861 9.175 5.068 9.406a.49.49 0 0 0 .728 0c.207-.23 5.069-5.688 5.069-9.406a5.439 5.439 0 0 0-5.433-5.432z"/></defs><g><g transform="translate(-1374 -2352)"><g><g><use fill="#c8c8c8" xlink:href="#9ghca"/></g></g></g></g></svg>