<svg xmlns="http://www.w3.org/2000/svg" xmlns:xlink="http://www.w3.org/1999/xlink" width="23" height="15" viewBox="0 0 23 15"><defs><path id="n46la" d="M1386.367 2319.537c-.304.25-.703.388-1.12.388-.42 0-.818-.137-1.122-.386l-1.75-1.443-8.375 6.764v.021c0 .065.055.12.12.12h22.191a.12.12 0 0 0 .119-.12v-.02l-8.368-6.723zm2.428-2.002l7.635 6.135v-12.436zm-14.795-6.342v12.474l7.643-6.174zm11.243 7.803h.005c.169 0 .336-.049.471-.138l.037-.024.025-.016.427-.353 10.198-8.416a.12.12 0 0 0-.095-.049h-22.192a.115.115 0 0 0-.074.027l10.67 8.794a.836.836 0 0 0 .528.175z"/></defs><g><g transform="translate(-1374 -2310)"><g><use fill="#c8c8c8" xlink:href="#n46la"/></g></g></g></svg>