<svg xmlns="http://www.w3.org/2000/svg" xmlns:xlink="http://www.w3.org/1999/xlink" width="15" height="15" viewBox="0 0 15 15"><defs><path id="xnh1a" d="M1389.003 2237.838a.725.725 0 0 1-.223.635l-2.113 2.098a1.19 1.19 0 0 1-.374.27 1.543 1.543 0 0 1-.452.143l-.096.008a2.164 2.164 0 0 1-.206.008c-.202 0-.527-.034-.978-.103-.45-.07-1-.239-1.652-.509-.652-.27-1.39-.675-2.217-1.215-.826-.54-1.705-1.282-2.637-2.225a17.412 17.412 0 0 1-1.844-2.097 14.944 14.944 0 0 1-1.176-1.852 9.97 9.97 0 0 1-.667-1.54 8.179 8.179 0 0 1-.302-1.193 3.936 3.936 0 0 1-.063-.786c.01-.19.016-.297.016-.318.02-.148.068-.3.143-.453a1.19 1.19 0 0 1 .27-.373l2.113-2.114a.7.7 0 0 1 .508-.222c.138 0 .26.04.366.12.106.079.196.177.27.293l1.7 3.226c.096.17.122.355.08.556a.99.99 0 0 1-.27.508l-.779.779a.265.265 0 0 0-.056.103.392.392 0 0 0-.023.12c.042.222.137.476.286.762.127.254.323.564.587.93.265.365.641.786 1.129 1.263.476.487.9.866 1.27 1.136.372.27.681.469.93.596.25.127.44.204.572.23l.199.04a.379.379 0 0 0 .103-.024.265.265 0 0 0 .104-.056l.905-.921a.973.973 0 0 1 .668-.254.83.83 0 0 1 .429.095h.016l3.066 1.811c.223.138.355.313.398.525z"/></defs><g><g transform="translate(-1374 -2226)"><g><g><use fill="#c8c8c8" xlink:href="#xnh1a"/></g></g></g></g></svg>