<svg xmlns="http://www.w3.org/2000/svg" width="29" height="18" viewBox="0 0 29 18"><g><g><g><path fill="#b5b5b5" d="M24.987 9.694c-.062-.898-.362-1.578-.904-2.043-.536-.467-1.205-.7-2.003-.7-.87 0-1.539.249-2.018.74-.48.493-.778 1.158-.9 2.003zm3.398-.337c.089.591.129 1.447.111 2.567h-9.413c.053 1.3.5 2.208 1.352 2.728.512.326 1.134.485 1.863.485.769 0 1.395-.194 1.876-.593.263-.212.494-.51.694-.887h3.451c-.092.767-.506 1.544-1.253 2.337-1.157 1.256-2.779 1.888-4.862 1.888-1.722 0-3.238-.534-4.555-1.592-1.313-1.061-1.972-2.787-1.972-5.179 0-2.242.593-3.96 1.78-5.154 1.192-1.197 2.729-1.793 4.625-1.793 1.124 0 2.137.2 3.041.604.901.405 1.645 1.04 2.231 1.915.53.77.872 1.66 1.03 2.674zm-16.909 2.936c0-.938-.384-1.585-1.148-1.934-.428-.197-1.031-.299-1.805-.306H4.648v4.81h3.814c.784 0 1.39-.102 1.828-.317.79-.392 1.186-1.14 1.186-2.253zM4.648 7.066h3.82c.785 0 1.42-.15 1.908-.447.489-.299.732-.828.732-1.589 0-.838-.322-1.395-.969-1.663-.556-.187-1.268-.283-2.13-.283h-3.36zm9.929 2.84c.468.727.703 1.611.703 2.645 0 1.073-.264 2.032-.802 2.88A4.98 4.98 0 0 1 13.2 16.85c-.575.441-1.255.746-2.036.909-.785.163-1.634.242-2.548.242H.486V-.05h8.717c2.197.035 3.754.671 4.674 1.923.552.766.825 1.686.825 2.755 0 1.105-.277 1.987-.834 2.657-.31.377-.767.72-1.374 1.028.92.337 1.616.865 2.083 1.593zm11.111-7.403h-7.27V.697h7.27z"/></g></g></g></svg>