<svg xmlns="http://www.w3.org/2000/svg" width="20" height="19" viewBox="0 0 20 19"><g><g><g><g><path fill="#b5b5b5" d="M17.578 13.34a3.749 3.749 0 0 1-3.75 3.749H6.15a3.749 3.749 0 0 1-3.749-3.75V5.66a3.749 3.749 0 0 1 3.75-3.749h7.679a3.749 3.749 0 0 1 3.749 3.75zM13.828 0H6.15A5.667 5.667 0 0 0 .49 5.66v7.68c0 3.12 2.54 5.66 5.66 5.66h7.68c3.12 0 5.66-2.54 5.66-5.66V5.66c0-3.12-2.54-5.66-5.66-5.66z"/></g><g><path fill="#b5b5b5" d="M9.989 12.503a3.003 3.003 0 1 1 0-6.006 3.003 3.003 0 0 1 0 6.006zm0-7.917A4.92 4.92 0 0 0 5.075 9.5a4.92 4.92 0 0 0 4.914 4.914A4.92 4.92 0 0 0 14.903 9.5a4.92 4.92 0 0 0-4.914-4.914z"/></g><g><path fill="#b5b5b5" d="M13.735 4.623a1.178 1.178 0 1 1 2.355 0 1.178 1.178 0 0 1-2.355 0z"/></g></g></g></g></svg>