<svg xmlns="http://www.w3.org/2000/svg" width="20" height="19" viewBox="0 0 20 19"><g><g><path fill="#b5b5b5" d="M15.756 13.58l-.437.436c-.618.618-2.039.569-2.952.392-3.036-.586-6.576-4.017-7.258-6.988-.338-1.472-.152-2.752.336-3.24l.437-.437a.618.618 0 0 1 .873 0L8.503 5.49c.116.117.18.272.18.437a.61.61 0 0 1-.18.436l-.437.437a1.238 1.238 0 0 0 0 1.748l2.885 2.847a1.235 1.235 0 0 0 1.748 0l.436-.437a.646.646 0 0 1 .874 0l1.747 1.747a.617.617 0 0 1 0 .874zM9.887.225C4.731.226.5 4.456.5 9.613c0 1.701.459 3.358 1.329 4.807L.499 19l4.58-1.329A9.325 9.325 0 0 0 9.888 19c5.156 0 9.387-4.231 9.387-9.387 0-5.156-4.231-9.387-9.387-9.387z"/></g></g></svg>