<svg xmlns="http://www.w3.org/2000/svg" width="24" height="24" viewBox="0 0 24 24"><defs><linearGradient id="ghmda" x1="12" x2="12" y1=".2" y2="23.94" gradientUnits="userSpaceOnUse"><stop offset="0" stop-color="#e09b3d"/><stop offset=".3" stop-color="#c74c4d"/><stop offset=".6" stop-color="#c21975"/><stop offset="1" stop-color="#7024c4"/></linearGradient><linearGradient id="ghmdb" x1="12" x2="12" y1=".19" y2="23.95" gradientUnits="userSpaceOnUse"><stop offset="0" stop-color="#e09b3d"/><stop offset=".3" stop-color="#c74c4d"/><stop offset=".6" stop-color="#c21975"/><stop offset="1" stop-color="#7024c4"/></linearGradient><linearGradient id="ghmdc" x1="18.22" x2="18.22" y1=".19" y2="23.98" gradientUnits="userSpaceOnUse"><stop offset="0" stop-color="#e09b3d"/><stop offset=".3" stop-color="#c74c4d"/><stop offset=".6" stop-color="#c21975"/><stop offset="1" stop-color="#7024c4"/></linearGradient></defs><g><g><g><path fill="url(#ghmda)" d="M21.586 16.85a4.735 4.735 0 0 1-4.736 4.736h-9.7a4.735 4.735 0 0 1-4.736-4.736v-9.7A4.735 4.735 0 0 1 7.15 2.414h9.7a4.735 4.735 0 0 1 4.736 4.736zM16.85 0h-9.7C3.207 0 0 3.207 0 7.15v9.7C0 20.793 3.207 24 7.15 24h9.7c3.943 0 7.15-3.207 7.15-7.15v-9.7C24 3.207 20.793 0 16.85 0z"/></g><g><path fill="url(#ghmdb)" d="M12 15.793a3.793 3.793 0 1 1 0-7.586 3.793 3.793 0 0 1 0 7.586zm0-10A6.214 6.214 0 0 0 5.793 12 6.214 6.214 0 0 0 12 18.207 6.214 6.214 0 0 0 18.207 12 6.214 6.214 0 0 0 12 5.793z"/></g><g><path fill="url(#ghmdc)" d="M16.732 5.84a1.487 1.487 0 1 1 2.975 0 1.487 1.487 0 0 1-2.975 0z"/></g></g></g></svg>